<?xml version="1.0" encoding="utf-8"?>
<!-- Generator: Adobe Illustrator 21.0.0, SVG Export Plug-In . SVG Version: 6.00 Build 0)  -->
<svg version="1.1" id="Layer_1" xmlns="http://www.w3.org/2000/svg" xmlns:xlink="http://www.w3.org/1999/xlink" x="0px" y="0px"
	 viewBox="0 0 2554.2 2554.2" style="enable-background:new 0 0 2554.2 2554.2;" xml:space="preserve">
<style type="text/css">
	.st0{fill:#C3996C;stroke:#754E25;stroke-width:2;stroke-miterlimit:10;}
	.st1{fill:#C3996C;}
	.st2{font-family:'Aventura-Bold';}
	.st3{font-size:282.5844px;}
	.st4{fill:none;stroke:#754E25;stroke-width:2;stroke-miterlimit:10;}
	.st5{fill:#C49A6C;stroke:#754D24;stroke-width:3;stroke-miterlimit:10;}
</style>
<title>Asset 1</title>
<g>
	<g>
		<path class="st0" d="M2110.8,1444.4c-88.4-107.1-184.5-225.4-269-333.5c-58.4-74.7-101.6-139.9-117.6-164.8
			c1.5-48,4.2-79.7,4.2-79.7s-20-126.7-173.4,180.1c-14.6,29.2-32.3,59.2-52.4,89.6c-90.4-36.4-274.3-317.3-312.1-276.4
			c-33.9,36.6-174.9,142.3-233.8,206.4c-89.6,42.4-452.6,211.8-653.2,267.1c-230.1,63.3,370.2-86.7,426.8-126.8
			c56.7-39.9,133.4-66.7,166.8-73.4c5.1-1,10-2,14.7-3c-62.1,85.3-218.6,265.1-201.5,256.5c20-10,180.1-120.1,220.1-176.8
			c40.1-56.7,23.4-70,60.1-136.7c36.6-66.7,200.1-143.4,200.1-143.4l80.3,77.5c3.5,8.8,34.9,90.4,9.7,166c-26.7,80,23.3,50,30,23.3
			c5.5-21.9-2.5-113.3,0-151l152.4,147.1c-203.1,274.1-561.5,560.8-561.5,560.8c760.4-466.9,813.7-1113.8,787-780.4
			c-26.6,333.5,146.8,500.3,80.1,353.5c-37.3-82-45.4-216.1-45.3-318.4c22.1,29.2,311.7,411.2,412.2,507.4
			c48.8,46.8,90.1,68.9,117.4,80.2C2220.3,1567.7,2164.8,1509.8,2110.8,1444.4z"/>
		<path class="st0" d="M2252.7,1595.7c14.1,12.2,23.8,18.7,27.1,17.6C2297.9,1607.3,2285.2,1609.2,2252.7,1595.7z"/>
	</g>
	<text transform="matrix(1 0 0 1 430.3 1785.4963)" class="st1 st2 st3">PRODUCTS</text>
	<text transform="matrix(1 0 0 1 430.3 1785.4963)" class="st4 st2 st3">PRODUCTS</text>
	<text transform="matrix(1 0 0 1 925.8 2124.5962)" class="st1 st2 st3">.COM</text>
	<text transform="matrix(1 0 0 1 925.8 2124.5962)" class="st4 st2 st3">.COM</text>
	<g>
		<path class="st0" d="M457.4,688l7.6-8.9c14.6-17.3,30.6-34.9,46.4-52.2c20.6-22.7,34.2-37.7,38-41.3l1.9-2.1
			c12.9-10.1,27.9-14.5,42.3-12.3c11.8,2,22.9,7.8,34,17.8c5.7,5.2,13.7,12.5,19.7,23.3c1.5,2.5,3.1,5.6,3.8,8.4
			c2.8-0.7,5.4-1.1,8.3-0.7c7.1-0.1,14.4,1.6,21.9,4.7c10.8,5.5,19.2,13.1,26.1,19.3c11.4,10.3,18.4,21.1,22.2,33.2
			c3.9,15,1.2,30.5-8.4,45.3l-1.9,2.1c-6.8,8-20.6,23.3-38.2,42.7c-15.2,16.7-33.9,37.4-54,58.9l-7.9,8.1L587,802.9l7.3-8.1l2.2-2.4
			L563,762.1l-7.1,7.8l-33.5-30.4l7.1-7.8l-28.1-25.5l-1.9,2.1l-7.3,8.6L457.4,688z M596.1,623.6c-9.6-8.7-13.2-7.1-15.7-5
			c-7.9,8.1-21.5,22.5-37.8,40.4l-12.8,14l29,26.3l10-11.1l0.8-0.9c32.2-37.3,37.5-46.1,38.3-47.6
			C608.2,637.9,608.9,635.3,596.1,623.6z M624.9,759.4c7.9-8.7,16.1-16.5,23.4-24.6c18.7-20.6,29.8-34,33.6-38.2
			c1.5-3.5,2.3-6.1,1.9-7.5c-1-2-2.9-6.4-8.9-11.9c-4.8-4.3-9.9-9-15.1-11c-3.2-1.8-4.3-1.2-6.3-0.3c-0.8,0.9-11.3,7.7-51.9,50.5
			l-4.6,5.1c-1.3,2.6-3.5,5-5.6,7.4L624.9,759.4z"/>
		<path class="st0" d="M669.7,539.5l-4.8,3.7l-26.1-37.4l147.6-103.2l26.2,36.8l-105.8,74.1l22.1,32.8l66.7-44.8l25.2,37.5
			l-66.7,44.8l20.7,30.8l108.5-70.1l24.2,38.2l-151,98.2l-24.3-37.6l5-3.4L669.7,539.5z"/>
		<path class="st0" d="M1067.6,427.2c6.9,15.1,11.4,28.1,13.5,38.9l0.1,0.4c2.1,13.4,0.9,24.9-3.1,34.4
			c-4.2,11.3-12.7,20.2-25.1,27.5c-9,4.8-18,8.4-28.6,12.4l-4.4,2c-4.6,1.6-8.6,3.4-13.2,5l-7.6,2.6c-34,11.7-58.5,12.5-76.8,3.9
			c-19.1-9.6-25.1-26.8-27.6-34l-0.1-0.4c-0.3-0.8-1.5-5.5-2.8-9.3l-2.6-7.6l41.3-15.1l4.9,14.1l1.3,3.8c2.1,6.1,3,7.5,5.1,8.5
			c2.4,0.9,13.1,4.5,42.8-5.8l5-1.7c4.8-2.1,10-4.3,14.6-5.9l2.3-0.8c13.6-5.1,29-11.3,30.8-15.8l0.4-0.1c-0.3-0.8,1.1-2.9-0.7-9.6
			c-1.4-7.6-4.5-16.8-9.8-28.2c-2.7-0.4-11.2-0.4-29.3,5.4l-46.4,16.5c-22.3,7.3-35.8,10.2-44.8,11.2c-15.6,0.7-25-5.5-29.9-11
			c0,0-4.1-4.6-5.7-9.1c-12.4-33.3-17.5-45.6-10.1-68.7c4.3-10.9,12.9-19.4,26.1-27c9.1-5.7,20.8-10.2,33-14.4l7.6-2.6
			c2.2-1.2,4.4-2,6.7-2.8c32.2-12,55.4-15.3,73.5-10.9c15.9,3.9,27.3,13.6,33.6,29.4l4.5,13l-41.1,15.9l-4.5-13
			c-0.4-1.1-0.5-1.5-3.1-1.5c-3.8-1.2-15.7-2.3-42.8,7.1l-4.6,1.6c-2.3,0.8-4.6,1.6-6.9,2.4c-2.3,0.8-4.6,1.6-7.1,2.9
			c-13.6,5.1-31.8,11.8-34.3,17c-0.5,1-2,7.9,6.3,26.9l0.8-0.3c6.4-1.3,15.7-4.1,27.9-8.4l46.9-16.2c24.8-8.6,44.8-9.9,59.3-5.1
			C1059,409.7,1065.2,420.4,1067.6,427.2z"/>
		<path class="st0" d="M1151.8,338l-63.9,6.3l-4.4-45l172.7-17.1l4.4,45l-63.9,6.3l16.1,171.2l-44.7,3.6L1151.8,338z"/>
		<path class="st0" d="M1488.1,515.5l76.3-201.4l46.6,120.3l108.8-68.3L1660,572.9l-40.3-11.8l28.9-100.6l-59,37.7l-25.6-66
			l-37.4,97.8L1488.1,515.5z"/>
		<path class="st0" d="M1809.3,466.3l-54.4-34l23.9-38.4l147.3,91.9l-23.9,38.4l-54.4-34L1756,635.7l-37.6-24.4L1809.3,466.3z"/>
		<path class="st0" d="M1972.1,519.8l8.5,8.1c16.4,15.6,33,32.6,49.4,49.4c21.5,21.9,35.6,36.4,38.9,40.4l2,2
			c9.3,13.5,12.8,28.7,9.8,42.9c-2.7,11.7-9.1,22.5-19.8,32.9c-5.5,5.4-13.3,13-24.5,18.3c-2.6,1.4-5.7,2.8-8.6,3.3
			c0.5,2.9,0.8,5.4,0.2,8.3c-0.4,7.1-2.4,14.2-5.9,21.6c-6.1,10.5-14.2,18.4-20.8,24.9c-11,10.7-22.2,17.2-34.5,20.2
			c-15.2,3-30.5-0.6-44.7-11.1l-2-2c-7.6-7.2-22-21.9-40.4-40.7c-15.8-16.2-35.3-36.1-55.6-57.4l-7.6-8.4l33.2-30.2l7.6,7.8l2.3,2.3
			l32.3-31.6l-7.3-7.5l32.3-31.6l7.3,7.5l27.1-26.5l-2-2l-8.2-7.8L1972.1,519.8z M1890.9,682.7c8.2,8.4,15.5,17,23.1,24.8
			c19.5,19.9,32.2,31.8,36.1,35.8c3.4,1.8,6,2.6,7.4,2.4c2-0.8,6.6-2.5,12.4-8.1c4.6-4.5,9.5-9.3,11.9-14.4c2-3.1,1.5-4.3,0.6-6.3
			c-0.8-0.9-7-11.8-47.4-54.8l-4.8-4.9c-2.6-1.5-4.8-3.8-7.1-6.1L1890.9,682.7z M2028.2,662c9.2-9,7.8-12.8,5.9-15.4
			c-7.6-8.4-21.2-22.8-38.1-40.1l-13.3-13.6l-28,27.4l10.4,10.7l0.8,0.9c35.3,34.4,43.8,40.2,45.2,41
			C2013.2,673.2,2015.7,674.1,2028.2,662z"/>
	</g>
	<g>
		<g>
			<g>
				<g>
					<g>
						<g>
							<path class="st5" d="M1138.1,2510.3c-7.9-7.5-13.2-13.8-17.2-21.3c-4.4-8.1-7.1-16.6-8.2-25.5c-2.3-18.2,1.7-35.1,12.1-50.4
								c7.8-11.4,18.1-19.8,30.7-25.2c19.8-8.5,39.5-8.5,59.1,0.8c8.4,4,16.7,8.3,25.2,12c12.3,5.3,25.2,8.9,38.5,10.6
								c11.4,1.4,23,2.3,34.5,2.2c11.7-0.1,23.3-2,34.7-4.7c11.8-2.8,23-7.3,34.1-12.2c11.2-5,23-7.7,35.5-7.1
								c15.4,0.7,29.1,6,41,15.3c8.1,6.3,14.4,14.4,19.2,23.6c4.7,9.1,7.6,18.7,8.1,28.8c0.6,12.4-1.5,24.4-7,35.6
								c-4.8,9.8-11.3,18.3-19.8,25c-11,8.7-23.3,14.4-37.5,15.7c-12.4,1.2-24.3-0.5-35.7-5.4c-3.5-1.5-7-3.2-10.4-5.1
								c-15.6-8.9-32.4-14.5-49.9-17.6c-11.3-2-22.9-2.7-34.4-3c-17-0.5-33.7,1.8-49.9,7.1c-9.3,3.1-18.5,6.8-27.6,10.5
								c-10.8,4.3-21.8,6.8-33.5,6c-9.5-0.7-18.6-2.7-27-6.9C1146.7,2516.4,1141.4,2512.4,1138.1,2510.3z M1163.8,2476.9
								c11.9,11,30.7,10.9,42.2-3.2c9.1-11.2,9.4-28.1-2.8-39.6c-12.2-11.4-29.6-10.7-41,1.5
								C1151.4,2447.1,1151.3,2465.5,1163.8,2476.9z M1394.2,2482c13.3,11.1,31.3,9.1,41.3-3.6c10.1-12.8,8.7-30.2-4.4-40.7
								c-11.5-9.2-29.4-9.6-41,5.6C1381.3,2454.7,1382.7,2471.5,1394.2,2482z"/>
						</g>
						<g>
							<path class="st5" d="M905.3,2476.5c-7.1-8.3-11.6-15.1-14.9-23c-3.5-8.5-5.3-17.2-5.5-26.2c-0.4-18.4,5.3-34.7,17.3-48.8
								c9-10.5,20.1-17.8,33.2-21.8c20.6-6.3,40.2-4.2,58.7,7c8,4.9,15.7,10.1,23.8,14.6c11.7,6.6,24.2,11.6,37.2,14.6
								c11.2,2.6,22.6,4.7,34.1,5.8c11.6,1.1,23.3,0.5,35-1c12.1-1.5,23.6-4.8,35.1-8.5c11.7-3.8,23.6-5.3,36-3.3
								c15.2,2.4,28.3,9,39.2,19.6c7.4,7.1,12.8,15.8,16.6,25.5c3.7,9.5,5.6,19.4,5,29.5c-0.7,12.4-4.1,24.1-10.7,34.7
								c-5.8,9.3-13.1,17-22.3,22.8c-11.9,7.5-24.7,11.8-38.9,11.7c-12.5-0.1-24.1-3-34.9-9.1c-3.4-1.9-6.7-3.9-9.8-6.2
								c-14.6-10.5-30.7-17.8-47.8-22.8c-11-3.2-22.5-5.1-33.9-6.7c-16.8-2.3-33.7-1.7-50.3,1.8c-9.6,2.1-19.1,4.8-28.6,7.5
								c-11.2,3.1-22.3,4.5-33.9,2.4c-9.4-1.7-18.2-4.6-26.1-9.7C913.2,2483.6,908.4,2479,905.3,2476.5z M934.3,2446
								c10.6,12.2,29.4,14.1,42.3,1.3c10.3-10.2,12.2-26.9,1.3-39.6c-10.9-12.7-28.4-13.7-40.9-2.9
								C925.1,2415.1,923.1,2433.4,934.3,2446z M1162.9,2475.5c12,12.5,30.2,12.4,41.5,0.8c11.4-11.7,11.8-29.1-0.2-41
								c-10.5-10.4-28.2-12.7-41.4,1.3C1152.9,2447,1152.5,2463.8,1162.9,2475.5z"/>
						</g>
					</g>
				</g>
			</g>
			<g>
				<g>
					<g>
						<g>
							<path class="st5" d="M676.2,2362.7c-4.4-10.3-6.8-18.3-7.6-27c-0.9-9.3,0-18.5,2.5-27.3c5.1-18.1,15.7-32.4,31.7-42.6
								c12-7.6,25-11.3,39.1-11.3c22.1,0,40.7,8,55.4,24.5c6.3,7.1,12.4,14.6,18.9,21.5c9.5,10,20.2,18.6,32,25.5
								c10.2,5.9,20.8,11.4,31.6,16c11,4.6,22.7,7.5,34.6,9.5c12.3,2.1,24.6,2.4,37,2.3c12.6-0.2,24.7,2,36.3,7.6
								c14.2,6.9,25,17.3,32.5,31c5.1,9.2,7.8,19.3,8.6,30c0.8,10.4-0.4,20.6-4,30.4c-4.4,11.9-11.3,22.3-21,30.7
								c-8.5,7.3-18,12.7-28.7,15.6c-13.9,3.8-27.8,4.1-41.7-0.3c-12.2-3.9-22.7-10.2-31.5-19.4c-2.7-2.9-5.3-5.8-7.7-9
								c-11.1-14.7-24.7-26.7-40-36.7c-9.9-6.4-20.5-11.8-31.2-16.7c-15.8-7.3-32.5-11.8-49.9-13.4c-10-0.9-20.2-1-30.3-1.3
								c-11.9-0.3-23.3-2.3-34-7.8c-8.7-4.5-16.4-10-22.7-17.4C681.9,2372,678.5,2366.1,676.2,2362.7z M713.9,2341.6
								c6.8,15.1,24.5,22.7,41,14c13.1-6.9,20.1-22.7,13.3-38.4s-23.6-22-39.2-15.1C714.3,2308.6,706.8,2325.8,713.9,2341.6z
								 M929,2439.3c8,15.8,25.8,21.2,40.4,13.2c14.7-8,20.4-25,12.2-40.2c-7.1-13.3-23.8-20.9-41-11.2
								C927.9,2408.4,922.4,2424.7,929,2439.3z"/>
						</g>
						<g>
							<path class="st5" d="M470.4,2237.2c-3.3-10.7-4.9-19-4.8-27.6c0.1-9.4,1.9-18.4,5.3-26.9c7-17.5,19-30.6,35.9-39.1
								c12.7-6.3,26.1-8.6,40.1-7.2c21.9,2.3,39.6,12.2,52.5,30.2c5.5,7.8,10.8,15.8,16.6,23.4c8.4,10.9,18.1,20.6,29.2,28.7
								c9.5,7,19.4,13.6,29.8,19.2c10.5,5.7,21.8,9.8,33.4,13.1c12,3.4,24.2,5,36.5,6.1c12.5,1.2,24.4,4.6,35.3,11.3
								c13.4,8.4,23,19.9,29.1,34.2c4.1,9.7,5.7,20.1,5.4,30.7c-0.3,10.5-2.5,20.5-7.1,29.8c-5.6,11.4-13.5,21-24.1,28.4
								c-9.2,6.4-19.2,10.7-30.2,12.5c-14.2,2.3-28,1.2-41.4-4.7c-11.7-5.1-21.5-12.6-29.2-22.7c-2.4-3.1-4.7-6.4-6.7-9.8
								c-9.5-15.8-21.8-29.2-35.9-40.7c-9.1-7.4-19.2-13.9-29.3-19.9c-14.9-9-31.1-15.2-48.2-18.5c-9.9-1.9-19.9-3.1-29.9-4.4
								c-11.8-1.5-22.9-4.7-32.9-11.4c-8.1-5.3-15.3-11.7-20.7-19.7C475.1,2247,472.3,2240.8,470.4,2237.2z M510.1,2220.1
								c5.1,15.8,22,25.1,39.3,18.3c13.8-5.4,22.4-20.5,17.2-36.8s-21.2-24.4-37.4-19.2C513.9,2187.3,504.6,2203.7,510.1,2220.1z
								 M713.6,2339.9c6.3,16.6,23.4,23.8,38.8,17.4c15.4-6.4,22.8-22.7,16.4-38.7c-5.7-14-21.5-23.3-39.5-15.5
								C715.7,2309.1,708.5,2324.8,713.6,2339.9z"/>
						</g>
					</g>
				</g>
			</g>
		</g>
		<g>
			<g>
				<g>
					<g>
						<g>
							<path class="st5" d="M306.8,2050.8c-0.3-10.9,0.5-19.1,2.9-27.2c2.6-8.8,6.7-16.7,12.2-23.9c11.2-14.5,26-23.7,44.2-27.1
								c13.6-2.6,26.8-1.2,39.5,3.9c20,8,33.9,22,41.2,42.3c3.1,8.8,5.9,17.7,9.3,26.3c5,12.5,11.5,24.2,19.8,34.7
								c7.1,9.1,14.6,17.9,22.8,26c8.3,8.2,17.9,15,27.9,21.2c10.3,6.4,21.4,11.1,32.7,15.5c11.4,4.4,21.7,10.8,30.1,20
								c10.4,11.4,16.3,24.8,18.2,39.9c1.2,10.2,0,20.3-3.1,30.3c-3.1,9.7-7.8,18.5-14.6,26.1c-8.3,9.2-18.3,16.1-30.2,20.2
								c-10.3,3.6-20.9,5-31.7,3.7c-14-1.6-26.7-6.3-37.7-15.4c-9.6-7.9-16.8-17.5-21.4-29c-1.4-3.6-2.7-7.2-3.7-10.9
								c-4.7-17.3-12.7-33.2-22.9-47.7c-6.6-9.4-14.3-18.1-22.2-26.5c-11.6-12.4-25.1-22.5-40.3-30.2c-8.8-4.4-17.9-8.2-26.9-12.1
								c-10.7-4.6-20.2-10.5-27.9-19.4c-6.2-7.2-11.3-15-14.2-24C308.6,2061.2,307.7,2054.7,306.8,2050.8z M348.6,2045.3
								c0.6,16.2,14,29.4,32.1,27.6c14.4-1.4,26.5-13.2,26-30c-0.5-16.7-13.4-28.5-30-27.9C360.9,2015.6,347.9,2028.5,348.6,2045.3z
								 M507.9,2211.9c1.5,17.3,15.7,28.6,31.8,26.7c16.2-1.9,27.5-15.2,25.7-31.9c-1.6-14.6-14-27.6-33-25
								C518.1,2183.5,507.2,2196.3,507.9,2211.9z"/>
						</g>
						<g>
							<path class="st5" d="M166,1862.3c0.9-10.9,2.5-18.9,5.7-26.8c3.5-8.5,8.4-15.9,14.6-22.5c12.7-13.3,28.3-20.8,46.7-22.3
								c13.8-1.1,26.8,1.6,38.9,8.1c19,10.1,31.4,25.4,36.5,46.4c2.2,9.1,4,18.2,6.5,27.2c3.6,12.9,8.9,25.3,16,36.6
								c6.1,9.8,12.7,19.4,20,28.2c7.4,9,16.2,16.8,25.5,24c9.6,7.4,20.1,13.3,30.9,18.8c10.9,5.6,20.4,13,27.8,23.1
								c9.1,12.4,13.6,26.3,13.9,41.6c0.2,10.3-2.1,20.2-6.3,29.8c-4.1,9.4-9.7,17.6-17.3,24.4c-9.2,8.3-19.9,14.1-32.1,17
								c-10.6,2.5-21.3,2.7-31.9,0.4c-13.7-3.1-25.8-9.1-35.8-19.3c-8.7-8.9-14.9-19.2-18.3-31.1c-1-3.7-1.9-7.5-2.6-11.3
								c-2.9-17.7-9.1-34.3-17.7-49.9c-5.6-10.1-12.3-19.5-19.3-28.7c-10.2-13.5-22.6-25.1-36.9-34.3c-8.3-5.3-16.9-10.1-25.5-14.9
								c-10.1-5.7-19-12.6-25.7-22.2c-5.4-7.8-9.6-16.1-11.6-25.4C166.7,1872.9,166.5,1866.3,166,1862.3z M208.2,1861.3
								c-1.1,16.1,10.8,30.7,29,30.8c14.4,0.1,27.7-10.4,29-27.1c1.2-16.6-10.3-29.8-26.9-31
								C223.5,1832.9,209.2,1844.4,208.2,1861.3z M349,2043.7c-0.3,17.3,12.6,30.1,28.8,29.9c16.3-0.2,28.9-12.3,28.9-29.1
								c-0.1-14.7-11-28.9-30.2-28.4C362.1,2016.5,349.9,2028.1,349,2043.7z"/>
						</g>
					</g>
				</g>
			</g>
			<g>
				<g>
					<g>
						<g>
							<path class="st5" d="M84.6,1619.9c4.1-10.4,8.1-17.8,13.7-24.5c6-7.2,13-13.1,21.1-17.6c16.4-9.2,34-11.8,52.5-7.7
								c13.8,3.1,25.7,9.7,35.7,19.6c15.6,15.6,23.1,34.4,21.8,56.5c-0.6,9.5-1.6,19-1.8,28.6c-0.4,13.7,1.1,27.4,4.6,40.7
								c3,11.4,6.6,22.8,11.1,33.7c4.5,11.1,10.8,21.4,17.7,31.2c7.2,10.2,15.7,19.1,24.6,27.8c9,8.8,16.1,18.9,20.3,31
								c5.2,14.9,5.4,29.9,1.1,44.9c-2.9,10.1-8.2,19.2-15.2,27.3c-6.8,7.9-14.9,14.3-24.3,18.7c-11.5,5.3-23.8,7.8-36.6,6.9
								c-11.2-0.8-21.7-3.7-31.4-9.3c-12.5-7.1-22.6-16.7-29.3-29.7c-5.9-11.4-8.8-23.3-8.5-36c0.1-3.9,0.4-7.9,0.9-11.8
								c2.5-18.2,1.4-36.4-2.3-54.2c-2.4-11.5-6.2-22.8-10.2-33.9c-6-16.3-14.6-31.4-25.8-44.7c-6.5-7.7-13.5-15-20.5-22.3
								c-8.2-8.6-14.8-18.1-18.5-29.6c-3-9.3-4.5-18.7-3.7-28.3C82,1630.4,83.8,1623.9,84.6,1619.9z M126.2,1631.6
								c-5.9,15.5,1.3,33.4,19.1,38.9c14.1,4.4,30.3-1.8,36.5-17.8c6.2-15.9-1.2-32.3-17.1-38.4
								C149.7,1608.5,132.3,1615.4,126.2,1631.6z M209.2,1852.8c-5.5,16.9,3.3,33.3,19.2,37.9c16,4.7,32-3.3,37.1-19.8
								c4.4-14.5-2.1-31.6-21-36.9C230.2,1830.1,214.8,1837.8,209.2,1852.8z"/>
						</g>
						<g>
							<path class="st5" d="M27.8,1385.5c5.2-9.9,10-16.9,16.2-22.9c6.7-6.5,14.3-11.6,22.8-15.3c17.3-7.4,35.1-8.2,53-2.2
								c13.4,4.5,24.6,12.3,33.4,23.3c13.9,17.1,19.4,36.6,15.7,58.5c-1.6,9.4-3.6,18.8-4.8,28.2c-1.8,13.6-1.8,27.4,0.3,41
								c1.8,11.7,4.1,23.3,7.4,34.7c3.3,11.5,8.5,22.4,14.3,32.9c6.1,10.9,13.6,20.6,21.5,30.2c8,9.7,14,20.5,16.9,33
								c3.6,15.4,2.2,30.3-3.7,44.8c-4,9.7-10.2,18.2-17.9,25.5c-7.6,7.2-16.3,12.7-26.1,16c-12,4.1-24.4,5.3-37.1,3
								c-11-2-21.2-6-30.2-12.5c-11.7-8.4-20.7-19-26-32.6c-4.7-11.9-6.3-24.1-4.7-36.7c0.5-3.9,1.2-7.8,2.1-11.7
								c4.4-17.9,5.2-36,3.4-54.2c-1.2-11.7-3.8-23.4-6.6-34.8c-4.2-16.9-11.2-32.7-21-47.2c-5.6-8.4-11.9-16.3-18-24.3
								c-7.3-9.4-12.8-19.5-15.3-31.3c-2-9.5-2.5-19.1-0.7-28.6C24.2,1395.8,26.6,1389.5,27.8,1385.5z M67.9,1401.5
								c-7.5,14.8-2.2,33.3,14.9,40.7c13.6,5.9,30.3,1.4,38.2-13.9c7.9-15.2,2.2-32.2-12.9-40C93.8,1381,75.7,1386,67.9,1401.5z
								 M127.1,1630.2c-7.3,16.2-0.3,33.4,15.1,39.7c15.4,6.4,32.2,0.1,38.9-15.8c5.9-13.9,1.3-31.7-17-38.9
								C150.4,1609.8,134.3,1615.9,127.1,1630.2z"/>
						</g>
					</g>
				</g>
			</g>
		</g>
		<g>
			<g>
				<g>
					<g>
						<g>
							<path class="st5" d="M44,1138.1c7.5-7.9,13.8-13.2,21.3-17.2c8.1-4.4,16.6-7.1,25.5-8.2c18.2-2.3,35.1,1.7,50.4,12.1
								c11.4,7.8,19.8,18.1,25.2,30.7c8.5,19.8,8.5,39.5-0.8,59.1c-4,8.4-8.3,16.7-12,25.2c-5.3,12.3-8.9,25.2-10.6,38.5
								c-1.4,11.4-2.3,23-2.2,34.5c0.1,11.7,2,23.3,4.7,34.7c2.8,11.8,7.3,23,12.2,34.1c5,11.2,7.7,23,7.1,35.5
								c-0.7,15.4-6,29.1-15.3,41c-6.3,8.1-14.4,14.4-23.6,19.2c-9.1,4.7-18.7,7.6-28.8,8.1c-12.4,0.6-24.4-1.5-35.6-7
								c-9.8-4.8-18.3-11.3-25-19.8c-8.7-11-14.4-23.3-15.7-37.5c-1.2-12.4,0.5-24.3,5.4-35.7c1.5-3.5,3.2-7,5.1-10.4
								c8.9-15.6,14.5-32.4,17.6-49.9c2-11.3,2.7-22.9,3-34.4c0.5-17-1.8-33.7-7.1-49.9c-3.1-9.3-6.8-18.5-10.5-27.6
								c-4.3-10.8-6.8-21.8-6-33.5c0.7-9.5,2.7-18.6,6.9-27C37.8,1146.7,41.8,1141.4,44,1138.1z M77.3,1163.8
								c-11,11.9-10.9,30.7,3.2,42.2c11.2,9.1,28.1,9.4,39.6-2.8c11.4-12.2,10.7-29.6-1.5-41C107.1,1151.4,88.8,1151.3,77.3,1163.8z
								 M72.2,1394.2c-11.1,13.3-9.1,31.3,3.6,41.3c12.8,10.1,30.2,8.7,40.7-4.4c9.2-11.5,9.6-29.4-5.6-41
								C99.5,1381.3,82.7,1382.7,72.2,1394.2z"/>
						</g>
						<g>
							<path class="st5" d="M77.7,905.3c8.3-7.1,15.1-11.6,23-14.9c8.5-3.5,17.2-5.3,26.2-5.5c18.4-0.4,34.7,5.3,48.8,17.3
								c10.5,9,17.8,20.1,21.8,33.2c6.3,20.6,4.2,40.2-7,58.7c-4.9,8-10.1,15.7-14.6,23.8c-6.6,11.7-11.6,24.2-14.6,37.2
								c-2.6,11.2-4.7,22.6-5.8,34.1c-1.1,11.6-0.5,23.3,1,35c1.5,12.1,4.8,23.6,8.5,35.1c3.8,11.7,5.3,23.6,3.3,36
								c-2.4,15.2-9,28.3-19.6,39.2c-7.1,7.4-15.8,12.8-25.5,16.6c-9.5,3.7-19.4,5.6-29.5,5c-12.4-0.7-24.1-4.1-34.7-10.7
								c-9.3-5.8-17-13.1-22.8-22.3c-7.5-11.9-11.8-24.7-11.7-38.9c0.1-12.5,3-24.1,9.1-34.9c1.9-3.4,3.9-6.7,6.2-9.8
								c10.5-14.6,17.8-30.7,22.8-47.8c3.2-11,5.1-22.5,6.7-33.9c2.3-16.8,1.7-33.7-1.8-50.3c-2.1-9.6-4.8-19.1-7.5-28.6
								c-3.1-11.2-4.5-22.3-2.4-33.9c1.7-9.4,4.6-18.2,9.7-26.1C70.7,913.2,75.2,908.4,77.7,905.3z M108.2,934.3
								c-12.2,10.6-14.1,29.4-1.3,42.3c10.2,10.3,26.9,12.2,39.6,1.3c12.7-10.9,13.7-28.4,2.9-40.9
								C139.1,925.1,120.8,923.1,108.2,934.3z M78.7,1162.9c-12.5,12-12.4,30.2-0.8,41.5c11.7,11.4,29.1,11.8,41-0.2
								c10.4-10.5,12.7-28.2-1.3-41.4C107.2,1152.9,90.4,1152.5,78.7,1162.9z"/>
						</g>
					</g>
				</g>
			</g>
			<g>
				<g>
					<g>
						<g>
							<path class="st5" d="M191.5,676.2c10.3-4.4,18.3-6.8,27-7.6c9.3-0.9,18.5,0,27.3,2.5c18.1,5.1,32.4,15.7,42.6,31.7
								c7.6,12,11.3,25,11.3,39.1c0,22.1-8,40.7-24.5,55.4c-7.1,6.3-14.6,12.4-21.5,18.9c-10,9.5-18.6,20.2-25.5,32
								c-5.9,10.2-11.4,20.8-16,31.6c-4.6,11-7.5,22.7-9.5,34.6c-2.1,12.3-2.4,24.6-2.3,37c0.2,12.6-2,24.7-7.6,36.3
								c-6.9,14.2-17.3,25-31,32.5c-9.2,5.1-19.3,7.8-30,8.6c-10.4,0.8-20.6-0.4-30.4-4c-11.9-4.4-22.3-11.3-30.7-21
								c-7.3-8.5-12.7-18-15.6-28.7c-3.8-13.9-4.1-27.8,0.3-41.7c3.9-12.2,10.2-22.7,19.4-31.5c2.9-2.7,5.8-5.3,9-7.7
								c14.7-11.1,26.7-24.7,36.7-40c6.4-9.9,11.8-20.5,16.7-31.2c7.3-15.8,11.8-32.5,13.4-49.9c0.9-10,1-20.2,1.3-30.3
								c0.3-11.9,2.3-23.3,7.8-34c4.5-8.7,10-16.4,17.4-22.7C182.2,681.9,188.1,678.5,191.5,676.2z M212.6,713.9
								c-15.1,6.8-22.7,24.5-14,41c6.9,13.1,22.7,20.1,38.4,13.3s22-23.6,15.1-39.2C245.6,714.3,228.4,706.8,212.6,713.9z
								 M114.9,929c-15.8,8-21.2,25.8-13.2,40.4c8,14.7,25,20.4,40.2,12.2c13.3-7.1,20.9-23.8,11.2-41
								C145.8,927.9,129.5,922.4,114.9,929z"/>
						</g>
						<g>
							<path class="st5" d="M317,470.4c10.7-3.3,19-4.9,27.6-4.8c9.4,0.1,18.4,1.9,26.9,5.3c17.5,7,30.6,19,39.1,35.9
								c6.3,12.7,8.6,26.1,7.2,40.1c-2.3,21.9-12.2,39.6-30.2,52.5c-7.8,5.5-15.8,10.8-23.4,16.6c-10.9,8.4-20.6,18.1-28.7,29.2
								c-7,9.5-13.6,19.4-19.2,29.8c-5.7,10.5-9.8,21.8-13.1,33.4c-3.4,12-5,24.2-6.1,36.5c-1.2,12.5-4.6,24.4-11.3,35.3
								c-8.4,13.4-19.9,23-34.2,29.1c-9.7,4.1-20.1,5.7-30.7,5.4c-10.5-0.3-20.5-2.5-29.8-7.1c-11.4-5.6-21-13.5-28.4-24.1
								c-6.4-9.2-10.7-19.2-12.5-30.2c-2.3-14.2-1.2-28,4.7-41.4c5.1-11.7,12.6-21.5,22.7-29.2c3.1-2.4,6.4-4.7,9.8-6.7
								c15.8-9.5,29.2-21.8,40.7-35.9c7.4-9.1,13.9-19.2,19.9-29.3c9-14.9,15.2-31.1,18.5-48.2c1.9-9.9,3.1-19.9,4.4-29.9
								c1.5-11.8,4.7-22.9,11.4-32.9c5.3-8.1,11.7-15.3,19.7-20.7C307.2,475.1,313.4,472.3,317,470.4z M334.1,510.1
								c-15.8,5.1-25.1,22-18.3,39.3c5.4,13.8,20.5,22.4,36.8,17.2s24.4-21.2,19.2-37.4C366.9,513.9,350.5,504.6,334.1,510.1z
								 M214.3,713.6c-16.6,6.3-23.8,23.4-17.4,38.8c6.4,15.4,22.7,22.8,38.7,16.4c14-5.7,23.3-21.5,15.5-39.5
								C245.2,715.7,229.5,708.5,214.3,713.6z"/>
						</g>
					</g>
				</g>
			</g>
		</g>
		<g>
			<g>
				<g>
					<g>
						<g>
							<path class="st5" d="M503.5,306.8c10.9-0.3,19.1,0.5,27.2,2.9c8.8,2.6,16.7,6.7,23.9,12.2c14.5,11.2,23.7,26,27.1,44.2
								c2.6,13.6,1.2,26.8-3.9,39.5c-8,20-22,33.9-42.3,41.2c-8.8,3.1-17.7,5.9-26.3,9.3c-12.5,5-24.2,11.5-34.7,19.8
								c-9.1,7.1-17.9,14.6-26,22.8c-8.2,8.3-15,17.9-21.2,27.9c-6.4,10.3-11.1,21.4-15.5,32.7c-4.4,11.4-10.8,21.7-20,30.1
								c-11.4,10.4-24.8,16.3-39.9,18.2c-10.2,1.2-20.3,0-30.3-3.1c-9.7-3.1-18.5-7.8-26.1-14.6c-9.2-8.3-16.1-18.3-20.2-30.2
								c-3.6-10.3-5-20.9-3.7-31.7c1.6-14,6.3-26.7,15.4-37.7c7.9-9.6,17.5-16.8,29-21.4c3.6-1.4,7.2-2.7,10.9-3.7
								c17.3-4.7,33.2-12.7,47.7-22.9c9.4-6.6,18.1-14.3,26.5-22.2c12.4-11.6,22.5-25.1,30.2-40.3c4.4-8.8,8.2-17.9,12.1-26.9
								c4.6-10.7,10.5-20.2,19.4-27.9c7.2-6.2,15-11.3,24-14.2C493,308.6,499.5,307.7,503.5,306.8z M508.9,348.6
								c-16.2,0.6-29.4,14-27.6,32.1c1.4,14.4,13.2,26.5,30,26c16.7-0.5,28.5-13.4,27.9-30C538.7,360.9,525.8,347.9,508.9,348.6z
								 M342.3,507.9c-17.3,1.5-28.6,15.7-26.7,31.8c1.9,16.2,15.2,27.5,31.9,25.7c14.6-1.6,27.6-14,25-33
								C370.7,518.1,357.9,507.2,342.3,507.9z"/>
						</g>
						<g>
							<path class="st5" d="M691.9,166c10.9,0.9,18.9,2.5,26.8,5.7c8.5,3.5,15.9,8.4,22.5,14.6c13.3,12.7,20.8,28.3,22.3,46.7
								c1.1,13.8-1.6,26.8-8.1,38.9c-10.1,19-25.4,31.4-46.4,36.5c-9.1,2.2-18.2,4-27.2,6.5c-12.9,3.6-25.3,8.9-36.6,16
								c-9.8,6.1-19.4,12.7-28.2,20c-9,7.4-16.8,16.2-24,25.5c-7.4,9.6-13.3,20.1-18.8,30.9c-5.6,10.9-13,20.4-23.1,27.8
								c-12.4,9.1-26.3,13.6-41.6,13.9c-10.3,0.2-20.2-2.1-29.8-6.3c-9.4-4.1-17.6-9.7-24.4-17.3c-8.3-9.2-14.1-19.9-17-32.1
								c-2.5-10.6-2.7-21.3-0.4-31.9c3.1-13.7,9.1-25.8,19.3-35.8c8.9-8.7,19.2-14.9,31.1-18.3c3.7-1,7.5-1.9,11.3-2.6
								c17.7-2.9,34.3-9.1,49.9-17.7c10.1-5.6,19.5-12.3,28.7-19.3c13.5-10.2,25.1-22.6,34.3-36.9c5.3-8.3,10.1-16.9,14.9-25.5
								c5.7-10.1,12.6-19,22.2-25.7c7.8-5.4,16.1-9.6,25.4-11.6C681.3,166.7,687.9,166.5,691.9,166z M692.9,208.2
								c-16.1-1.1-30.7,10.8-30.8,29c-0.1,14.4,10.4,27.7,27.1,29c16.6,1.2,29.8-10.3,31-26.9C721.3,223.5,709.8,209.2,692.9,208.2z
								 M510.5,349c-17.3-0.3-30.1,12.6-29.9,28.8c0.2,16.3,12.3,28.9,29.1,28.9c14.7-0.1,28.9-11,28.4-30.2
								C537.7,362.1,526.1,349.9,510.5,349z"/>
						</g>
					</g>
				</g>
			</g>
			<g>
				<g>
					<g>
						<g>
							<path class="st5" d="M934.3,84.6c10.4,4.1,17.8,8.1,24.5,13.7c7.2,6,13.1,13,17.6,21.1c9.2,16.4,11.8,34,7.7,52.5
								c-3.1,13.8-9.7,25.7-19.6,35.7c-15.6,15.6-34.4,23.1-56.5,21.8c-9.5-0.6-19-1.6-28.6-1.8c-13.7-0.4-27.4,1.1-40.7,4.6
								c-11.4,3-22.8,6.6-33.7,11.1c-11.1,4.5-21.4,10.8-31.2,17.7c-10.2,7.2-19.1,15.7-27.8,24.6c-8.8,9-18.9,16.1-31,20.3
								c-14.9,5.2-29.9,5.4-44.9,1.1c-10.1-2.9-19.2-8.2-27.3-15.2c-7.9-6.8-14.3-14.9-18.7-24.3c-5.3-11.5-7.8-23.8-6.9-36.6
								c0.8-11.2,3.7-21.7,9.3-31.4c7.1-12.5,16.7-22.6,29.7-29.3c11.4-5.9,23.3-8.8,36-8.5c3.9,0.1,7.9,0.4,11.8,0.9
								c18.2,2.5,36.4,1.4,54.2-2.3c11.5-2.4,22.8-6.2,33.9-10.2c16.3-6,31.4-14.6,44.7-25.8c7.7-6.5,15-13.5,22.3-20.5
								c8.6-8.2,18.1-14.8,29.6-18.5c9.3-3,18.7-4.5,28.3-3.7C923.8,82,930.3,83.8,934.3,84.6z M922.6,126.2
								c-15.5-5.9-33.4,1.3-38.9,19.1c-4.4,14.1,1.8,30.3,17.8,36.5c15.9,6.2,32.3-1.2,38.4-17.1
								C945.7,149.7,938.8,132.3,922.6,126.2z M701.4,209.2c-16.9-5.5-33.3,3.3-37.9,19.2c-4.7,16,3.3,32,19.8,37.1
								c14.5,4.4,31.6-2.1,36.9-21C724.1,230.2,716.4,214.8,701.4,209.2z"/>
						</g>
						<g>
							<path class="st5" d="M1168.7,27.8c9.9,5.2,16.9,10,22.9,16.2c6.5,6.7,11.6,14.3,15.3,22.8c7.4,17.3,8.2,35.1,2.2,53
								c-4.5,13.4-12.3,24.6-23.3,33.4c-17.1,13.9-36.6,19.4-58.5,15.7c-9.4-1.6-18.8-3.6-28.2-4.8c-13.6-1.8-27.4-1.8-41,0.3
								c-11.7,1.8-23.3,4.1-34.7,7.4c-11.5,3.3-22.4,8.5-32.9,14.3c-10.9,6.1-20.6,13.6-30.2,21.5c-9.7,8-20.5,14-33,16.9
								c-15.4,3.6-30.3,2.2-44.8-3.7c-9.7-4-18.2-10.2-25.5-17.9c-7.2-7.6-12.7-16.3-16-26.1c-4.1-12-5.3-24.4-3-37.1
								c2-11,6-21.2,12.5-30.2c8.4-11.7,19-20.7,32.6-26c11.9-4.7,24.1-6.3,36.7-4.7c3.9,0.5,7.8,1.2,11.7,2.1
								c17.9,4.4,36,5.2,54.2,3.4c11.7-1.2,23.4-3.8,34.8-6.6c16.9-4.2,32.7-11.2,47.2-21c8.4-5.6,16.3-11.9,24.3-18
								c9.4-7.3,19.5-12.8,31.3-15.3c9.5-2,19.1-2.5,28.6-0.7C1158.4,24.2,1164.7,26.6,1168.7,27.8z M1152.7,67.9
								c-14.8-7.5-33.3-2.2-40.7,14.9c-5.9,13.6-1.4,30.3,13.9,38.2c15.2,7.9,32.2,2.2,40-12.9C1173.2,93.8,1168.2,75.7,1152.7,67.9
								z M924,127.1c-16.2-7.3-33.4-0.3-39.7,15.1c-6.4,15.4-0.1,32.2,15.8,38.9c13.9,5.9,31.7,1.3,38.9-17
								C944.4,150.4,938.3,134.3,924,127.1z"/>
						</g>
					</g>
				</g>
			</g>
		</g>
		<g>
			<g>
				<g>
					<g>
						<g>
							<path class="st5" d="M1416.1,44c7.9,7.5,13.2,13.8,17.2,21.3c4.4,8.1,7.1,16.6,8.2,25.5c2.3,18.2-1.7,35.1-12.1,50.4
								c-7.8,11.4-18.1,19.8-30.7,25.2c-19.8,8.5-39.5,8.5-59.1-0.8c-8.4-4-16.7-8.3-25.2-12c-12.3-5.3-25.2-8.9-38.5-10.6
								c-11.4-1.4-23-2.3-34.5-2.2c-11.7,0.1-23.3,2-34.7,4.7c-11.8,2.8-23,7.3-34.1,12.2c-11.2,5-23,7.7-35.5,7.1
								c-15.4-0.7-29.1-6-41-15.3c-8.1-6.3-14.4-14.4-19.2-23.6c-4.7-9.1-7.6-18.7-8.1-28.8c-0.6-12.4,1.5-24.4,7-35.6
								c4.8-9.8,11.3-18.3,19.8-25c11-8.7,23.3-14.4,37.5-15.7c12.4-1.2,24.3,0.5,35.7,5.4c3.5,1.5,7,3.2,10.4,5.1
								c15.6,8.9,32.4,14.5,49.9,17.6c11.3,2,22.9,2.7,34.4,3c17,0.5,33.7-1.8,49.9-7.1c9.3-3.1,18.5-6.8,27.6-10.5
								c10.8-4.3,21.8-6.8,33.5-6c9.5,0.7,18.6,2.7,27,6.9C1407.5,37.8,1412.8,41.8,1416.1,44z M1390.4,77.3
								c-11.9-11-30.7-10.9-42.2,3.2c-9.1,11.2-9.4,28.1,2.8,39.6c12.2,11.4,29.6,10.7,41-1.5C1402.8,107.1,1402.9,88.8,1390.4,77.3
								z M1160,72.2c-13.3-11.1-31.3-9.1-41.3,3.6c-10.1,12.8-8.7,30.2,4.4,40.7c11.5,9.2,29.4,9.6,41-5.6
								C1172.9,99.5,1171.6,82.7,1160,72.2z"/>
						</g>
						<g>
							<path class="st5" d="M1648.9,77.7c7.1,8.3,11.6,15.1,14.9,23c3.5,8.5,5.3,17.2,5.5,26.2c0.4,18.4-5.3,34.7-17.3,48.8
								c-9,10.5-20.1,17.8-33.2,21.8c-20.6,6.3-40.2,4.2-58.7-7c-8-4.9-15.7-10.1-23.8-14.6c-11.7-6.6-24.2-11.6-37.2-14.6
								c-11.2-2.6-22.6-4.7-34.1-5.8c-11.6-1.1-23.3-0.5-35,1c-12.1,1.5-23.6,4.8-35.1,8.5c-11.7,3.8-23.6,5.3-36,3.3
								c-15.2-2.4-28.3-9-39.2-19.6c-7.4-7.1-12.8-15.8-16.6-25.5c-3.7-9.5-5.6-19.4-5-29.5c0.7-12.4,4.1-24.1,10.7-34.7
								c5.8-9.3,13.1-17,22.3-22.8c11.9-7.5,24.7-11.8,38.9-11.7c12.5,0.1,24.1,3,34.9,9.1c3.4,1.9,6.7,3.9,9.8,6.2
								c14.6,10.5,30.7,17.8,47.8,22.8c11,3.2,22.5,5.1,33.9,6.7c16.8,2.3,33.7,1.7,50.3-1.8c9.6-2.1,19.1-4.8,28.6-7.5
								c11.2-3.1,22.3-4.5,33.9-2.4c9.4,1.7,18.2,4.6,26.1,9.7C1641,70.7,1645.8,75.2,1648.9,77.7z M1619.9,108.2
								c-10.6-12.2-29.4-14.1-42.3-1.3c-10.3,10.2-12.2,26.9-1.3,39.6c10.9,12.7,28.4,13.7,40.9,2.9
								C1629.1,139.1,1631.1,120.8,1619.9,108.2z M1391.3,78.7c-12-12.5-30.2-12.4-41.5-0.8c-11.4,11.7-11.8,29.1,0.2,41
								c10.5,10.4,28.2,12.7,41.4-1.3C1401.3,107.2,1401.7,90.4,1391.3,78.7z"/>
						</g>
					</g>
				</g>
			</g>
			<g>
				<g>
					<g>
						<g>
							<path class="st5" d="M1878,191.5c4.4,10.3,6.8,18.3,7.6,27c0.9,9.3,0,18.5-2.5,27.3c-5.1,18.1-15.7,32.4-31.7,42.6
								c-12,7.6-25,11.3-39.1,11.3c-22.1,0-40.7-8-55.4-24.5c-6.3-7.1-12.4-14.6-18.9-21.5c-9.5-10-20.2-18.6-32-25.5
								c-10.2-5.9-20.8-11.4-31.6-16c-11-4.6-22.7-7.5-34.6-9.5c-12.3-2.1-24.6-2.4-37-2.3c-12.6,0.2-24.7-2-36.3-7.6
								c-14.2-6.9-25-17.3-32.5-31c-5.1-9.2-7.8-19.3-8.6-30c-0.8-10.4,0.4-20.6,4-30.4c4.4-11.9,11.3-22.3,21-30.7
								c8.5-7.3,18-12.7,28.7-15.6c13.9-3.8,27.8-4.1,41.7,0.3c12.2,3.9,22.7,10.2,31.5,19.4c2.7,2.9,5.3,5.8,7.7,9
								c11.1,14.7,24.7,26.7,40,36.7c9.9,6.4,20.5,11.8,31.2,16.7c15.8,7.3,32.5,11.8,49.9,13.4c10,0.9,20.2,1,30.3,1.3
								c11.9,0.3,23.3,2.3,34,7.8c8.7,4.5,16.4,10,22.7,17.4C1872.3,182.2,1875.7,188.1,1878,191.5z M1840.3,212.6
								c-6.8-15.1-24.5-22.7-41-14c-13.1,6.9-20.1,22.7-13.3,38.4c6.8,15.7,23.6,22,39.2,15.1
								C1839.9,245.6,1847.4,228.4,1840.3,212.6z M1625.2,114.9c-8-15.8-25.8-21.2-40.4-13.2c-14.7,8-20.4,25-12.2,40.2
								c7.1,13.3,23.8,20.9,41,11.2C1626.3,145.8,1631.8,129.5,1625.2,114.9z"/>
						</g>
						<g>
							<path class="st5" d="M2083.8,317c3.3,10.7,4.9,19,4.8,27.6c-0.1,9.4-1.9,18.4-5.3,26.9c-7,17.5-19,30.6-35.9,39.1
								c-12.7,6.3-26.1,8.6-40.1,7.2c-21.9-2.3-39.6-12.2-52.5-30.2c-5.5-7.8-10.8-15.8-16.6-23.4c-8.4-10.9-18.1-20.6-29.2-28.7
								c-9.5-7-19.4-13.6-29.8-19.2c-10.5-5.7-21.8-9.8-33.4-13.1c-12-3.4-24.2-5-36.5-6.1c-12.5-1.2-24.4-4.6-35.3-11.3
								c-13.4-8.4-23-19.9-29.1-34.2c-4.1-9.7-5.7-20.1-5.4-30.7c0.3-10.5,2.5-20.5,7.1-29.8c5.6-11.4,13.5-21,24.1-28.4
								c9.2-6.4,19.2-10.7,30.2-12.5c14.2-2.3,28-1.2,41.4,4.7c11.7,5.1,21.5,12.6,29.2,22.7c2.4,3.1,4.7,6.4,6.7,9.8
								c9.5,15.8,21.8,29.2,35.9,40.7c9.1,7.4,19.2,13.9,29.3,19.9c14.9,9,31.1,15.2,48.2,18.5c9.9,1.9,19.9,3.1,29.9,4.4
								c11.8,1.5,22.9,4.7,32.9,11.4c8.1,5.3,15.3,11.7,20.7,19.7C2079.1,307.2,2081.9,313.4,2083.8,317z M2044.1,334.1
								c-5.1-15.8-22-25.1-39.3-18.3c-13.8,5.4-22.4,20.5-17.2,36.8c5.2,16.3,21.2,24.4,37.4,19.2
								C2040.4,366.9,2049.6,350.5,2044.1,334.1z M1840.6,214.3c-6.3-16.6-23.4-23.8-38.8-17.4c-15.4,6.4-22.8,22.7-16.4,38.7
								c5.7,14,21.5,23.3,39.5,15.5C1838.5,245.2,1845.7,229.5,1840.6,214.3z"/>
						</g>
					</g>
				</g>
			</g>
		</g>
		<g>
			<g>
				<g>
					<g>
						<g>
							<path class="st5" d="M2247.4,503.5c0.3,10.9-0.5,19.1-2.9,27.2c-2.6,8.8-6.7,16.7-12.2,23.9c-11.2,14.5-26,23.7-44.2,27.1
								c-13.6,2.6-26.8,1.2-39.5-3.9c-20-8-33.9-22-41.2-42.3c-3.1-8.8-5.9-17.7-9.3-26.3c-5-12.5-11.5-24.2-19.8-34.7
								c-7.1-9.1-14.6-17.9-22.8-26c-8.3-8.2-17.9-15-27.9-21.2c-10.3-6.4-21.4-11.1-32.7-15.5c-11.4-4.4-21.7-10.8-30.1-20
								c-10.4-11.4-16.3-24.8-18.2-39.9c-1.2-10.2,0-20.3,3.1-30.3c3.1-9.7,7.8-18.5,14.6-26.1c8.3-9.2,18.3-16.1,30.2-20.2
								c10.3-3.6,20.9-5,31.7-3.7c14,1.6,26.7,6.3,37.7,15.4c9.6,7.9,16.8,17.5,21.4,29c1.4,3.6,2.7,7.2,3.7,10.9
								c4.7,17.3,12.7,33.2,22.9,47.7c6.6,9.4,14.3,18.1,22.2,26.5c11.6,12.4,25.1,22.5,40.3,30.2c8.8,4.4,17.9,8.2,26.9,12.1
								c10.7,4.6,20.2,10.5,27.9,19.4c6.2,7.2,11.3,15,14.2,24C2245.6,493,2246.5,499.5,2247.4,503.5z M2205.6,508.9
								c-0.6-16.2-14-29.4-32.1-27.6c-14.4,1.4-26.5,13.2-26,30c0.5,16.7,13.4,28.5,30,27.9C2193.3,538.7,2206.3,525.8,2205.6,508.9
								z M2046.3,342.3c-1.5-17.3-15.7-28.6-31.8-26.7c-16.2,1.9-27.5,15.2-25.7,31.9c1.6,14.6,14,27.6,33,25
								C2036.1,370.7,2047,357.9,2046.3,342.3z"/>
						</g>
						<g>
							<path class="st5" d="M2388.2,691.9c-0.9,10.9-2.5,18.9-5.7,26.8c-3.5,8.5-8.4,15.9-14.6,22.5c-12.7,13.3-28.3,20.8-46.7,22.3
								c-13.8,1.1-26.8-1.6-38.9-8.1c-19-10.1-31.4-25.4-36.5-46.4c-2.2-9.1-4-18.2-6.5-27.2c-3.6-12.9-8.9-25.3-16-36.6
								c-6.1-9.8-12.7-19.4-20-28.2c-7.4-9-16.2-16.8-25.5-24c-9.6-7.4-20.1-13.3-30.9-18.8c-10.9-5.6-20.4-13-27.8-23.1
								c-9.1-12.4-13.6-26.3-13.9-41.6c-0.2-10.3,2.1-20.2,6.3-29.8c4.1-9.4,9.7-17.6,17.3-24.4c9.2-8.3,19.9-14.1,32.1-17
								c10.6-2.5,21.3-2.7,31.9-0.4c13.7,3.1,25.8,9.1,35.8,19.3c8.7,8.9,14.9,19.2,18.3,31.1c1,3.7,1.9,7.5,2.6,11.3
								c2.9,17.7,9.1,34.3,17.7,49.9c5.6,10.1,12.3,19.5,19.3,28.7c10.2,13.5,22.6,25.1,36.9,34.3c8.3,5.3,16.9,10.1,25.5,14.9
								c10.1,5.7,19,12.6,25.7,22.2c5.4,7.8,9.6,16.1,11.6,25.4C2387.5,681.3,2387.7,687.9,2388.2,691.9z M2346,692.9
								c1.1-16.1-10.8-30.7-29-30.8c-14.4-0.1-27.7,10.4-29,27.1c-1.2,16.6,10.3,29.8,26.9,31C2330.7,721.3,2345,709.8,2346,692.9z
								 M2205.2,510.5c0.3-17.3-12.6-30.1-28.8-29.9c-16.3,0.2-28.9,12.3-28.9,29.1c0.1,14.7,11,28.9,30.2,28.4
								C2192.2,537.7,2204.3,526.1,2205.2,510.5z"/>
						</g>
					</g>
				</g>
			</g>
			<g>
				<g>
					<g>
						<g>
							<path class="st5" d="M2469.6,934.3c-4.1,10.4-8.1,17.8-13.7,24.5c-6,7.2-13,13.1-21.1,17.6c-16.4,9.2-34,11.8-52.5,7.7
								c-13.8-3.1-25.7-9.7-35.7-19.6c-15.6-15.6-23.1-34.4-21.8-56.5c0.6-9.5,1.6-19,1.8-28.6c0.4-13.7-1.1-27.4-4.6-40.7
								c-3-11.4-6.6-22.8-11.1-33.7c-4.5-11.1-10.8-21.4-17.7-31.2c-7.2-10.2-15.7-19.1-24.6-27.8c-9-8.8-16.1-18.9-20.3-31
								c-5.2-14.9-5.4-29.9-1.1-44.9c2.9-10.1,8.2-19.2,15.2-27.3c6.8-7.9,14.9-14.3,24.3-18.7c11.5-5.3,23.8-7.8,36.6-6.9
								c11.2,0.8,21.7,3.7,31.4,9.3c12.5,7.1,22.6,16.7,29.3,29.7c5.9,11.4,8.8,23.3,8.5,36c-0.1,3.9-0.4,7.9-0.9,11.8
								c-2.5,18.2-1.4,36.4,2.3,54.2c2.4,11.5,6.2,22.8,10.2,33.9c6,16.3,14.6,31.4,25.8,44.7c6.5,7.7,13.5,15,20.5,22.3
								c8.2,8.6,14.8,18.1,18.5,29.6c3,9.3,4.5,18.7,3.7,28.3C2472.2,923.8,2470.4,930.3,2469.6,934.3z M2428.1,922.6
								c5.9-15.5-1.3-33.4-19.1-38.9c-14.1-4.4-30.3,1.8-36.5,17.8c-6.2,15.9,1.2,32.3,17.1,38.4
								C2404.5,945.7,2422,938.8,2428.1,922.6z M2345,701.4c5.5-16.9-3.3-33.3-19.2-37.9c-16-4.7-32,3.3-37.1,19.8
								c-4.4,14.5,2.1,31.6,21,36.9C2324,724.1,2339.4,716.4,2345,701.4z"/>
						</g>
						<g>
							<path class="st5" d="M2526.4,1168.7c-5.2,9.9-10,16.9-16.2,22.9c-6.7,6.5-14.3,11.6-22.8,15.3c-17.3,7.4-35.1,8.2-53,2.2
								c-13.4-4.5-24.6-12.3-33.4-23.3c-13.9-17.1-19.4-36.6-15.7-58.5c1.6-9.4,3.6-18.8,4.8-28.2c1.8-13.6,1.8-27.4-0.3-41
								c-1.8-11.7-4.1-23.3-7.4-34.7c-3.3-11.5-8.5-22.4-14.3-32.9c-6.1-10.9-13.6-20.6-21.5-30.2c-8-9.7-14-20.5-16.9-33
								c-3.6-15.4-2.2-30.3,3.7-44.8c4-9.7,10.2-18.2,17.9-25.5c7.6-7.2,16.3-12.7,26.1-16c12-4.1,24.4-5.3,37.1-3
								c11,2,21.2,6,30.2,12.5c11.7,8.4,20.7,19,26,32.6c4.7,11.9,6.3,24.1,4.7,36.7c-0.5,3.9-1.2,7.8-2.1,11.7
								c-4.4,17.9-5.2,36-3.4,54.2c1.2,11.7,3.8,23.4,6.6,34.8c4.2,16.9,11.2,32.7,21,47.2c5.6,8.4,11.9,16.3,18,24.3
								c7.3,9.4,12.8,19.5,15.3,31.3c2,9.5,2.5,19.1,0.7,28.6C2530,1158.4,2527.6,1164.7,2526.4,1168.7z M2486.3,1152.7
								c7.5-14.8,2.2-33.3-14.9-40.7c-13.6-5.9-30.3-1.4-38.2,13.9c-7.9,15.2-2.2,32.2,12.9,40
								C2460.4,1173.2,2478.5,1168.2,2486.3,1152.7z M2427.1,924c7.3-16.2,0.3-33.4-15.1-39.7c-15.4-6.4-32.2-0.1-38.9,15.8
								c-5.9,13.9-1.3,31.7,17,38.9C2403.8,944.4,2419.9,938.3,2427.1,924z"/>
						</g>
					</g>
				</g>
			</g>
		</g>
		<g>
			<g>
				<g>
					<g>
						<g>
							<path class="st5" d="M2510.3,1416.1c-7.5,7.9-13.8,13.2-21.3,17.2c-8.1,4.4-16.6,7.1-25.5,8.2c-18.2,2.3-35.1-1.7-50.4-12.1
								c-11.4-7.8-19.8-18.1-25.2-30.7c-8.5-19.8-8.5-39.5,0.8-59.1c4-8.4,8.3-16.7,12-25.2c5.3-12.3,8.9-25.2,10.6-38.5
								c1.4-11.4,2.3-23,2.2-34.5c-0.1-11.7-2-23.3-4.7-34.7c-2.8-11.8-7.3-23-12.2-34.1c-5-11.2-7.7-23-7.1-35.5
								c0.7-15.4,6-29.1,15.3-41c6.3-8.1,14.4-14.4,23.6-19.2c9.1-4.7,18.7-7.6,28.8-8.1c12.4-0.6,24.4,1.5,35.6,7
								c9.8,4.8,18.3,11.3,25,19.8c8.7,11,14.4,23.3,15.7,37.5c1.2,12.4-0.5,24.3-5.4,35.7c-1.5,3.5-3.2,7-5.1,10.4
								c-8.9,15.6-14.5,32.4-17.6,49.9c-2,11.3-2.7,22.9-3,34.4c-0.5,17,1.8,33.7,7.1,49.9c3.1,9.3,6.8,18.5,10.5,27.6
								c4.3,10.8,6.8,21.8,6,33.5c-0.7,9.5-2.7,18.6-6.9,27C2516.4,1407.5,2512.4,1412.8,2510.3,1416.1z M2476.9,1390.4
								c11-11.9,10.9-30.7-3.2-42.2c-11.2-9.1-28.1-9.4-39.6,2.8c-11.4,12.2-10.7,29.6,1.5,41
								C2447.1,1402.8,2465.5,1402.9,2476.9,1390.4z M2482,1160c11.1-13.3,9.1-31.3-3.6-41.3c-12.8-10.1-30.2-8.7-40.7,4.4
								c-9.2,11.5-9.6,29.4,5.6,41C2454.7,1172.9,2471.5,1171.6,2482,1160z"/>
						</g>
						<g>
							<path class="st5" d="M2476.5,1648.9c-8.3,7.1-15.1,11.6-23,14.9c-8.5,3.5-17.2,5.3-26.2,5.5c-18.4,0.4-34.7-5.3-48.8-17.3
								c-10.5-9-17.8-20.1-21.8-33.2c-6.3-20.6-4.2-40.2,7-58.7c4.9-8,10.1-15.7,14.6-23.8c6.6-11.7,11.6-24.2,14.6-37.2
								c2.6-11.2,4.7-22.6,5.8-34.1c1.1-11.6,0.5-23.3-1-35c-1.5-12.1-4.8-23.6-8.5-35.1c-3.8-11.7-5.3-23.6-3.3-36
								c2.4-15.2,9-28.3,19.6-39.2c7.1-7.4,15.8-12.8,25.5-16.6c9.5-3.7,19.4-5.6,29.5-5c12.4,0.7,24.1,4.1,34.7,10.7
								c9.3,5.8,17,13.1,22.8,22.3c7.5,11.9,11.8,24.7,11.7,38.9c-0.1,12.5-3,24.1-9.1,34.9c-1.9,3.4-3.9,6.7-6.2,9.8
								c-10.5,14.6-17.8,30.7-22.8,47.8c-3.2,11-5.1,22.5-6.7,33.9c-2.3,16.8-1.7,33.7,1.8,50.3c2.1,9.6,4.8,19.1,7.5,28.6
								c3.1,11.2,4.5,22.3,2.4,33.9c-1.7,9.4-4.6,18.2-9.7,26.1C2483.6,1641,2479,1645.8,2476.5,1648.9z M2446,1619.9
								c12.2-10.6,14.1-29.4,1.3-42.3c-10.2-10.3-26.9-12.2-39.6-1.3c-12.7,10.9-13.7,28.4-2.9,40.9
								C2415.1,1629.1,2433.4,1631.1,2446,1619.9z M2475.5,1391.3c12.5-12,12.4-30.2,0.8-41.5c-11.7-11.4-29.1-11.8-41,0.2
								c-10.4,10.5-12.7,28.2,1.3,41.4C2447,1401.3,2463.8,1401.7,2475.5,1391.3z"/>
						</g>
					</g>
				</g>
			</g>
			<g>
				<g>
					<g>
						<g>
							<path class="st5" d="M2362.7,1878c-10.3,4.4-18.3,6.8-27,7.6c-9.3,0.9-18.5,0-27.3-2.5c-18.1-5.1-32.4-15.7-42.6-31.7
								c-7.6-12-11.3-25-11.3-39.1c0-22.1,8-40.7,24.5-55.4c7.1-6.3,14.6-12.4,21.5-18.9c10-9.5,18.6-20.2,25.5-32
								c5.9-10.2,11.4-20.8,16-31.6c4.6-11,7.5-22.7,9.5-34.6c2.1-12.3,2.4-24.6,2.3-37c-0.2-12.6,2-24.7,7.6-36.3
								c6.9-14.2,17.3-25,31-32.5c9.2-5.1,19.3-7.8,30-8.6c10.4-0.8,20.6,0.4,30.4,4c11.9,4.4,22.3,11.3,30.7,21
								c7.3,8.5,12.7,18,15.6,28.7c3.8,13.9,4.1,27.8-0.3,41.7c-3.9,12.2-10.2,22.7-19.4,31.5c-2.9,2.7-5.8,5.3-9,7.7
								c-14.7,11.1-26.7,24.7-36.7,40c-6.4,9.9-11.8,20.5-16.7,31.2c-7.3,15.8-11.8,32.5-13.4,49.9c-0.9,10-1,20.2-1.3,30.3
								c-0.3,11.9-2.3,23.3-7.8,34c-4.5,8.7-10,16.4-17.4,22.7C2372,1872.3,2366.1,1875.7,2362.7,1878z M2341.6,1840.3
								c15.1-6.8,22.7-24.5,14-41c-6.9-13.1-22.7-20.1-38.4-13.3c-15.7,6.8-22,23.6-15.1,39.2
								C2308.6,1839.9,2325.8,1847.4,2341.6,1840.3z M2439.3,1625.2c15.8-8,21.2-25.8,13.2-40.4c-8-14.7-25-20.4-40.2-12.2
								c-13.3,7.1-20.9,23.8-11.2,41C2408.4,1626.3,2424.7,1631.8,2439.3,1625.2z"/>
						</g>
						<g>
							<path class="st5" d="M2237.2,2083.8c-10.7,3.3-19,4.9-27.6,4.8c-9.4-0.1-18.4-1.9-26.9-5.3c-17.5-7-30.6-19-39.1-35.9
								c-6.3-12.7-8.6-26.1-7.2-40.1c2.3-21.9,12.2-39.6,30.2-52.5c7.8-5.5,15.8-10.8,23.4-16.6c10.9-8.4,20.6-18.1,28.7-29.2
								c7-9.5,13.6-19.4,19.2-29.8c5.7-10.5,9.8-21.8,13.1-33.4c3.4-12,5-24.2,6.1-36.5c1.2-12.5,4.6-24.4,11.3-35.3
								c8.4-13.4,19.9-23,34.2-29.1c9.7-4.1,20.1-5.7,30.7-5.4c10.5,0.3,20.5,2.5,29.8,7.1c11.4,5.6,21,13.5,28.4,24.1
								c6.4,9.2,10.7,19.2,12.5,30.2c2.3,14.2,1.2,28-4.7,41.4c-5.1,11.7-12.6,21.5-22.7,29.2c-3.1,2.4-6.4,4.7-9.8,6.7
								c-15.8,9.5-29.2,21.8-40.7,35.9c-7.4,9.1-13.9,19.2-19.9,29.3c-9,14.9-15.2,31.1-18.5,48.2c-1.9,9.9-3.1,19.9-4.4,29.9
								c-1.5,11.8-4.7,22.9-11.4,32.9c-5.3,8.1-11.7,15.3-19.7,20.7C2247,2079.1,2240.8,2081.9,2237.2,2083.8z M2220.1,2044.1
								c15.8-5.1,25.1-22,18.3-39.3c-5.4-13.8-20.5-22.4-36.8-17.2c-16.3,5.2-24.4,21.2-19.2,37.4
								C2187.3,2040.4,2203.7,2049.6,2220.1,2044.1z M2339.9,1840.6c16.6-6.3,23.8-23.4,17.4-38.8c-6.4-15.4-22.7-22.8-38.7-16.4
								c-14,5.7-23.3,21.5-15.5,39.5C2309.1,1838.5,2324.8,1845.7,2339.9,1840.6z"/>
						</g>
					</g>
				</g>
			</g>
		</g>
		<g>
			<g>
				<g>
					<g>
						<g>
							<path class="st5" d="M2050.8,2247.4c-10.9,0.3-19.1-0.5-27.2-2.9c-8.8-2.6-16.7-6.7-23.9-12.2c-14.5-11.2-23.7-26-27.1-44.2
								c-2.6-13.6-1.2-26.8,3.9-39.5c8-20,22-33.9,42.3-41.2c8.8-3.1,17.7-5.9,26.3-9.3c12.5-5,24.2-11.5,34.7-19.8
								c9.1-7.1,17.9-14.6,26-22.8c8.2-8.3,15-17.9,21.2-27.9c6.4-10.3,11.1-21.4,15.5-32.7c4.4-11.4,10.8-21.7,20-30.1
								c11.4-10.4,24.8-16.3,39.9-18.2c10.2-1.2,20.3,0,30.3,3.1c9.7,3.1,18.5,7.8,26.1,14.6c9.2,8.3,16.1,18.3,20.2,30.2
								c3.6,10.3,5,20.9,3.7,31.7c-1.6,14-6.3,26.7-15.4,37.7c-7.9,9.6-17.5,16.8-29,21.4c-3.6,1.4-7.2,2.7-10.9,3.7
								c-17.3,4.7-33.2,12.7-47.7,22.9c-9.4,6.6-18.1,14.3-26.5,22.2c-12.4,11.6-22.5,25.1-30.2,40.3c-4.4,8.8-8.2,17.9-12.1,26.9
								c-4.6,10.7-10.5,20.2-19.4,27.9c-7.2,6.2-15,11.3-24,14.2C2061.2,2245.6,2054.7,2246.5,2050.8,2247.4z M2045.3,2205.6
								c16.2-0.6,29.4-14,27.6-32.1c-1.4-14.4-13.2-26.5-30-26c-16.7,0.5-28.5,13.4-27.9,30
								C2015.6,2193.3,2028.5,2206.3,2045.3,2205.6z M2211.9,2046.3c17.3-1.5,28.6-15.7,26.7-31.8c-1.9-16.2-15.2-27.5-31.9-25.7
								c-14.6,1.6-27.6,14-25,33C2183.5,2036.1,2196.3,2047,2211.9,2046.3z"/>
						</g>
						<g>
							<path class="st5" d="M1862.3,2388.2c-10.9-0.9-18.9-2.5-26.8-5.7c-8.5-3.5-15.9-8.4-22.5-14.6
								c-13.3-12.7-20.8-28.3-22.3-46.7c-1.1-13.8,1.6-26.8,8.1-38.9c10.1-19,25.4-31.4,46.4-36.5c9.1-2.2,18.2-4,27.2-6.5
								c12.9-3.6,25.3-8.9,36.6-16c9.8-6.1,19.4-12.7,28.2-20c9-7.4,16.8-16.2,24-25.5c7.4-9.6,13.3-20.1,18.8-30.9
								c5.6-10.9,13-20.4,23.1-27.8c12.4-9.1,26.3-13.6,41.6-13.9c10.3-0.2,20.2,2.1,29.8,6.3c9.4,4.1,17.6,9.7,24.4,17.3
								c8.3,9.2,14.1,19.9,17,32.1c2.5,10.6,2.7,21.3,0.4,31.9c-3.1,13.7-9.1,25.8-19.3,35.8c-8.9,8.7-19.2,14.9-31.1,18.3
								c-3.7,1-7.5,1.9-11.3,2.6c-17.7,2.9-34.3,9.1-49.9,17.7c-10.1,5.6-19.5,12.3-28.7,19.3c-13.5,10.2-25.1,22.6-34.3,36.9
								c-5.3,8.3-10.1,16.9-14.9,25.5c-5.7,10.1-12.6,19-22.2,25.7c-7.8,5.4-16.1,9.6-25.4,11.6
								C1872.9,2387.5,1866.3,2387.7,1862.3,2388.2z M1861.3,2346c16.1,1.1,30.7-10.8,30.8-29c0.1-14.4-10.4-27.7-27.1-29
								c-16.6-1.2-29.8,10.3-31,26.9C1832.9,2330.7,1844.4,2345,1861.3,2346z M2043.7,2205.2c17.3,0.3,30.1-12.6,29.9-28.8
								c-0.2-16.3-12.3-28.9-29.1-28.9c-14.7,0.1-28.9,11-28.4,30.2C2016.5,2192.2,2028.1,2204.3,2043.7,2205.2z"/>
						</g>
					</g>
				</g>
			</g>
			<g>
				<g>
					<g>
						<g>
							<path class="st5" d="M1619.9,2469.6c-10.4-4.1-17.8-8.1-24.5-13.7c-7.2-6-13.1-13-17.6-21.1c-9.2-16.4-11.8-34-7.7-52.5
								c3.1-13.8,9.7-25.7,19.6-35.7c15.6-15.6,34.4-23.1,56.5-21.8c9.5,0.6,19,1.6,28.6,1.8c13.7,0.4,27.4-1.1,40.7-4.6
								c11.4-3,22.8-6.6,33.7-11.1c11.1-4.5,21.4-10.8,31.2-17.7c10.2-7.2,19.1-15.7,27.8-24.6c8.8-9,18.9-16.1,31-20.3
								c14.9-5.2,29.9-5.4,44.9-1.1c10.1,2.9,19.2,8.2,27.3,15.2c7.9,6.8,14.3,14.9,18.7,24.3c5.3,11.5,7.8,23.8,6.9,36.6
								c-0.8,11.2-3.7,21.7-9.3,31.4c-7.1,12.5-16.7,22.6-29.7,29.3c-11.4,5.9-23.3,8.8-36,8.5c-3.9-0.1-7.9-0.4-11.8-0.9
								c-18.2-2.5-36.4-1.4-54.2,2.3c-11.5,2.4-22.8,6.2-33.9,10.2c-16.3,6-31.4,14.6-44.7,25.8c-7.7,6.5-15,13.5-22.3,20.5
								c-8.6,8.2-18.1,14.8-29.6,18.5c-9.3,3-18.7,4.5-28.3,3.7C1630.4,2472.2,1623.9,2470.4,1619.9,2469.6z M1631.6,2428.1
								c15.5,5.9,33.4-1.3,38.9-19.1c4.4-14.1-1.8-30.3-17.8-36.5c-15.9-6.2-32.3,1.2-38.4,17.1
								C1608.5,2404.5,1615.4,2422,1631.6,2428.1z M1852.8,2345c16.9,5.5,33.3-3.3,37.9-19.2c4.7-16-3.3-32-19.8-37.1
								c-14.5-4.4-31.6,2.1-36.9,21C1830.1,2324,1837.8,2339.4,1852.8,2345z"/>
						</g>
						<g>
							<path class="st5" d="M1385.5,2526.4c-9.9-5.2-16.9-10-22.9-16.2c-6.5-6.7-11.6-14.3-15.3-22.8c-7.4-17.3-8.2-35.1-2.2-53
								c4.5-13.4,12.3-24.6,23.3-33.4c17.1-13.9,36.6-19.4,58.5-15.7c9.4,1.6,18.8,3.6,28.2,4.8c13.6,1.8,27.4,1.8,41-0.3
								c11.7-1.8,23.3-4.1,34.7-7.4c11.5-3.3,22.4-8.5,32.9-14.3c10.9-6.1,20.6-13.6,30.2-21.5c9.7-8,20.5-14,33-16.9
								c15.4-3.6,30.3-2.2,44.8,3.7c9.7,4,18.2,10.2,25.5,17.9c7.2,7.6,12.7,16.3,16,26.1c4.1,12,5.3,24.4,3,37.1
								c-2,11-6,21.2-12.5,30.2c-8.4,11.7-19,20.7-32.6,26c-11.9,4.7-24.1,6.3-36.7,4.7c-3.9-0.5-7.8-1.2-11.7-2.1
								c-17.9-4.4-36-5.2-54.2-3.4c-11.7,1.2-23.4,3.8-34.8,6.6c-16.9,4.2-32.7,11.2-47.2,21c-8.4,5.6-16.3,11.9-24.3,18
								c-9.4,7.3-19.5,12.8-31.3,15.3c-9.5,2-19.1,2.5-28.6,0.7C1395.8,2530,1389.5,2527.6,1385.5,2526.4z M1401.5,2486.3
								c14.8,7.5,33.3,2.2,40.7-14.9c5.9-13.6,1.4-30.3-13.9-38.2c-15.2-7.9-32.2-2.2-40,12.9
								C1381,2460.4,1386,2478.5,1401.5,2486.3z M1630.2,2427.1c16.2,7.3,33.4,0.3,39.7-15.1c6.4-15.4,0.1-32.2-15.8-38.9
								c-13.9-5.9-31.7-1.3-38.9,17C1609.8,2403.8,1615.9,2419.9,1630.2,2427.1z"/>
						</g>
					</g>
				</g>
			</g>
		</g>
	</g>
</g>
</svg>
