<?xml version="1.0" encoding="utf-8"?>
<!-- Generator: Adobe Illustrator 21.0.0, SVG Export Plug-In . SVG Version: 6.00 Build 0)  -->
<svg version="1.1" id="Layer_1" xmlns="http://www.w3.org/2000/svg" xmlns:xlink="http://www.w3.org/1999/xlink" x="0px" y="0px"
	 viewBox="0 0 2554.2 2554.2" style="enable-background:new 0 0 2554.2 2554.2;" xml:space="preserve">
<style type="text/css">
	.st0{stroke:#303030;stroke-miterlimit:10;}
	.st1{font-family:'Aventura-Bold';}
	.st2{font-size:278.2982px;}
	.st3{fill:none;stroke:#303030;stroke-miterlimit:10;}
	.st4{stroke:#8C8B8B;stroke-width:3;stroke-miterlimit:10;}
</style>
<g>
	<g>
		<g>
			<g>
				<g>
					<path class="st0" d="M907,1728.5c0,0,492.7-394.1,643.7-696.3s170.8-177.3,170.8-177.3s-26.3,308.7,39.5,453.2
						c65.6,144.6-105.1-19.7-78.9-348.2C1708.4,631.6,1655.9,1268.6,907,1728.5z"/>
				</g>
			</g>
			<g>
				<g>
					<path class="st0" d="M1710.6,922.8c0,0,49,78.8,122.6,172.9c83.2,106.4,177.9,222.9,264.9,328.4
						c76.4,92.5,155.9,169.9,166.4,166.4c32.9-11-36.8,4.6-142.3-96.3c-102.9-98.5-407.2-501.4-407.2-501.4L1710.6,922.8z"/>
				</g>
			</g>
			<g>
				<g>
					<path class="st0" d="M1513.6,1124.1l-42.8,62.4l-279.1-269.3c0,0-160.9,75.5-197,141.3c-36.2,65.7-19.8,78.8-59.2,134.6
						c-39.4,55.8-197,164.2-216.7,174.1c-19.7,9.8,193.7-233.2,220.1-285.7c26.2-52.6,213.4-190.5,252.9-233.2
						C1231.1,805.6,1431.4,1117.6,1513.6,1124.1z"/>
				</g>
			</g>
			<g>
				<g>
					<path class="st0" d="M1270.5,992.8c0,0,36.2,85.4,9.9,164.2c-26.3,78.8,23,49.3,29.6,23s-6.6-154.3,3.3-164.2
						C1323,1005.9,1270.5,992.8,1270.5,992.8z"/>
				</g>
			</g>
			<g>
				<g>
					<path class="st0" d="M981.5,1042c0,0-436.8,210.2-663.4,272.6s364.6-85.4,420.3-124.9c55.8-39.3,131.4-65.6,164.2-72.2
						c32.8-6.6,59.1-13.1,59.1-13.1L981.5,1042z"/>
				</g>
			</g>
		</g>
		<text transform="matrix(1 0 0 1 443.144 1760.0669)" class="st1 st2">PRODUCTS</text>
		<text transform="matrix(1 0 0 1 443.144 1760.0669)" class="st3 st1 st2">PRODUCTS</text>
		<text transform="matrix(1 0 0 1 931.144 2094.0669)" class="st1 st2">.COM</text>
		<text transform="matrix(1 0 0 1 931.144 2094.0669)" class="st3 st1 st2">.COM</text>
		<g>
			<path class="st0" d="M469.8,679.2l7.5-8.8c14.4-17,30.1-34.4,45.7-51.5c20.3-22.4,33.7-37.1,37.4-40.6l1.9-2.1
				c12.8-9.9,27.5-14.3,41.6-12.1c11.6,2,22.6,7.6,33.5,17.5c5.6,5.1,13.5,12.3,19.4,23c1.5,2.5,3.1,5.5,3.8,8.3
				c2.8-0.7,5.3-1.1,8.1-0.7c7-0.1,14.1,1.6,21.6,4.6c10.7,5.4,18.9,12.9,25.7,19c11.2,10.2,18.2,20.8,21.8,32.7
				c3.8,14.7,1.2,30.1-8.3,44.6l-1.9,2.1c-6.7,7.9-20.3,22.9-37.7,42.1c-15,16.5-33.4,36.8-53.2,58l-7.8,8l-31.6-30.8l7.2-7.9
				l2.1-2.4l-33-29.9l-6.9,7.7l-33-29.9l6.9-7.7l-27.7-25.1l-1.9,2.1l-7.2,8.5L469.8,679.2z M606.4,615.8c-9.4-8.6-13-7-15.4-4.9
				c-7.8,8-21.2,22.1-37.2,39.8l-12.6,13.8l28.5,25.9l9.9-10.9l0.8-0.9c31.7-36.7,36.9-45.4,37.7-46.8
				C618.3,629.9,619,627.3,606.4,615.8z M634.8,749.5c7.8-8.5,15.8-16.2,23-24.2c18.4-20.3,29.3-33.5,33.1-37.6
				c1.5-3.5,2.2-6,1.9-7.4c-0.9-1.9-2.8-6.3-8.7-11.7c-4.7-4.3-9.7-8.8-14.9-10.8c-3.2-1.8-4.3-1.2-6.2-0.3
				c-0.8,0.9-11.2,7.6-51.1,49.7l-4.5,5c-1.3,2.6-3.4,4.9-5.6,7.3L634.8,749.5z"/>
			<path class="st0" d="M678.9,532.9l-4.7,3.7l-25.7-36.8l145.3-101.6l25.8,36.3l-104.2,73l21.7,32.3l65.6-44.2l24.9,36.9L762,576.7
				l20.4,30.3l106.9-69l23.9,37.6l-148.7,96.7l-24-37.1l4.9-3.3L678.9,532.9z"/>
			<path class="st0" d="M1070.8,422.4c6.8,14.9,11.2,27.7,13.2,38.3l0.1,0.4c2,13.2,0.9,24.5-3,33.9c-4.2,11.1-12.5,19.9-24.7,27.1
				c-8.9,4.8-17.8,8.2-28.2,12.3l-4.4,1.9c-4.5,1.6-8.5,3.4-13,4.9l-7.5,2.6c-33.4,11.6-57.6,12.3-75.6,3.9
				c-18.8-9.5-24.7-26.4-27.2-33.5l-0.1-0.4c-0.3-0.8-1.4-5.4-2.7-9.1L895,497l40.7-14.9l4.8,13.9l1.3,3.8c2.1,6,3,7.4,5,8.4
				c2.4,0.9,12.9,4.4,42.2-5.7l4.9-1.7c4.8-2.1,9.9-4.3,14.4-5.8l2.3-0.8c13.4-5.1,28.5-11.1,30.4-15.5l0.4-0.1
				c-0.3-0.8,1.1-2.9-0.7-9.4c-1.3-7.5-4.5-16.5-9.6-27.8c-2.6-0.3-11.1-0.4-28.9,5.3l-45.7,16.2c-21.9,7.2-35.2,10.1-44.1,11
				c-15.3,0.7-24.6-5.4-29.4-10.9c0,0-4.1-4.5-5.6-9c-12.2-32.8-17.2-44.9-9.9-67.7c4.3-10.7,12.7-19.1,25.7-26.6
				c9-5.6,20.5-10,32.5-14.2l7.5-2.6c2.1-1.2,4.4-1.9,6.6-2.7c31.7-11.8,54.5-15.1,72.4-10.7c15.6,3.9,26.9,13.4,33.1,28.9l4.4,12.8
				l-40.4,15.7l-4.4-12.8c-0.4-1.1-0.5-1.5-3-1.5c-3.8-1.2-15.5-2.2-42.2,7l-4.5,1.6c-2.3,0.8-4.5,1.6-6.8,2.3
				c-2.3,0.8-4.5,1.6-7,2.8c-13.4,5.1-31.3,11.7-33.8,16.7c-0.5,1-1.9,7.8,6.2,26.5l0.8-0.3c6.3-1.3,15.4-4.1,27.4-8.2l46.2-16
				c24.4-8.4,44.1-9.8,58.4-5C1062.3,405.1,1068.4,415.6,1070.8,422.4z"/>
			<path class="st0" d="M1153.7,334.5l-62.9,6.2l-4.4-44.3l170.1-16.8l4.4,44.3l-62.9,6.2l15.9,168.6l-44,3.5L1153.7,334.5z"/>
			<path class="st0" d="M1484.9,509.3L1560,311l45.9,118.5l107.2-67.3l-58.9,203.7l-39.7-11.6l28.5-99l-58.1,37.2l-25.2-65
				l-36.8,96.3L1484.9,509.3z"/>
			<path class="st0" d="M1801.3,460.9l-53.6-33.5l23.6-37.8l145,90.5l-23.6,37.8l-53.6-33.5l-90.4,143.3l-37-24L1801.3,460.9z"/>
			<path class="st0" d="M1961.5,513.6l8.3,8c16.1,15.4,32.5,32.1,48.7,48.6c21.1,21.6,35,35.8,38.4,39.8l1.9,2
				c9.1,13.3,12.6,28.3,9.7,42.3c-2.7,11.5-9,22.1-19.5,32.4c-5.4,5.3-13.1,12.8-24.1,18c-2.5,1.4-5.7,2.7-8.5,3.3
				c0.5,2.8,0.8,5.4,0.2,8.2c-0.4,7-2.4,14-5.9,21.3c-6,10.3-14,18.1-20.5,24.5c-10.8,10.6-21.8,16.9-34,19.9
				c-14.9,2.9-30.1-0.6-44-10.9l-1.9-2c-7.5-7.1-21.7-21.6-39.8-40.1c-15.6-15.9-34.8-35.5-54.8-56.5l-7.5-8.2l32.7-29.7l7.5,7.7
				l2.2,2.3l31.8-31.1l-7.2-7.4l31.8-31.1l7.2,7.4l26.7-26.1l-1.9-2l-8.1-7.7L1961.5,513.6z M1881.6,674
				c8.1,8.2,15.3,16.8,22.8,24.4c19.2,19.6,31.7,31.3,35.6,35.3c3.4,1.7,5.9,2.6,7.3,2.3c2-0.8,6.5-2.5,12.2-8
				c4.5-4.4,9.4-9.2,11.7-14.2c2-3.1,1.5-4.2,0.6-6.2c-0.8-0.9-6.9-11.6-46.6-53.9l-4.7-4.8c-2.5-1.4-4.7-3.7-7-6L1881.6,674z
				 M2016.8,653.6c9.1-8.9,7.7-12.6,5.8-15.1c-7.5-8.2-20.8-22.4-37.5-39.5l-13.1-13.4l-27.6,27l10.3,10.5l0.8,0.9
				c34.8,33.8,43.1,39.6,44.5,40.4C2002,664.7,2004.5,665.6,2016.8,653.6z"/>
		</g>
	</g>
	<g>
		<g>
			<g>
				<g>
					<g>
						<g>
							<path class="st4" d="M1140.2,2491.6c-7.8-7.4-13-13.6-16.9-20.9c-4.3-7.9-7-16.3-8.1-25.1c-2.3-18,1.6-34.6,11.9-49.6
								c7.7-11.3,17.8-19.5,30.3-24.8c19.5-8.3,38.9-8.3,58.2,0.8c8.3,3.9,16.4,8.2,24.8,11.8c12.1,5.2,24.9,8.8,37.9,10.4
								c11.3,1.4,22.7,2.3,34,2.2c11.5-0.1,22.9-2,34.2-4.6c11.7-2.8,22.6-7.1,33.5-12c11.1-4.9,22.6-7.6,34.9-7
								c15.2,0.7,28.6,5.9,40.4,15.1c8,6.2,14.2,14.2,18.9,23.3c4.6,8.9,7.5,18.4,8,28.3c0.6,12.2-1.5,24-6.9,35.1
								c-4.7,9.7-11.1,18-19.5,24.7c-10.8,8.6-23,14.1-37,15.5c-12.2,1.2-23.9-0.5-35.2-5.3c-3.5-1.5-6.9-3.1-10.2-5
								c-15.4-8.8-31.9-14.3-49.2-17.3c-11.1-2-22.6-2.6-33.9-3c-16.7-0.5-33.2,1.8-49.1,7c-9.2,3-18.2,6.7-27.2,10.3
								c-10.6,4.2-21.4,6.7-33,5.9c-9.3-0.7-18.3-2.6-26.6-6.8C1148.7,2497.6,1143.5,2493.7,1140.2,2491.6z M1165.5,2458.7
								c11.7,10.8,30.2,10.8,41.5-3.1c9-11,9.2-27.6-2.8-39c-12-11.3-29.2-10.5-40.4,1.5C1153.3,2429.4,1153.2,2447.4,1165.5,2458.7
								z M1392.4,2463.7c13.1,11,30.8,9,40.7-3.5c9.9-12.6,8.6-29.7-4.4-40.1c-11.3-9.1-28.9-9.5-40.4,5.6
								C1379.7,2436.9,1381.1,2453.4,1392.4,2463.7z"/>
						</g>
						<g>
							<path class="st4" d="M910.9,2458.3c-7-8.2-11.5-14.9-14.6-22.6c-3.4-8.3-5.3-17-5.5-25.8c-0.4-18.1,5.2-34.2,17-48.1
								c8.8-10.4,19.8-17.5,32.7-21.5c20.3-6.2,39.6-4.2,57.8,6.9c7.8,4.8,15.5,9.9,23.5,14.4c11.5,6.5,23.8,11.4,36.6,14.4
								c11.1,2.6,22.3,4.7,33.6,5.8c11.4,1.1,23,0.5,34.5-1c11.9-1.5,23.2-4.7,34.6-8.4c11.5-3.7,23.3-5.2,35.4-3.3
								c15,2.3,27.8,8.9,38.6,19.3c7.3,7,12.6,15.6,16.4,25.1c3.7,9.4,5.5,19.1,5,29c-0.7,12.2-4,23.7-10.6,34.2
								c-5.7,9.1-12.9,16.7-21.9,22.5c-11.7,7.4-24.3,11.6-38.4,11.5c-12.3-0.1-23.7-3-34.4-9c-3.3-1.9-6.6-3.9-9.6-6.1
								c-14.4-10.3-30.3-17.6-47.1-22.4c-10.9-3.1-22.2-5-33.4-6.6c-16.6-2.3-33.2-1.7-49.6,1.8c-9.5,2-18.8,4.8-28.1,7.4
								c-11,3.1-22,4.4-33.4,2.4c-9.2-1.6-17.9-4.6-25.7-9.6C918.7,2465.3,914,2460.8,910.9,2458.3z M939.5,2428.3
								c10.5,12,28.9,13.9,41.6,1.3c10.1-10,12.1-26.5,1.3-39c-10.7-12.5-27.9-13.5-40.3-2.8
								C930.5,2397.9,928.5,2415.8,939.5,2428.3z M1164.6,2457.3c11.9,12.3,29.7,12.2,40.8,0.8c11.2-11.5,11.6-28.7-0.2-40.4
								c-10.3-10.2-27.8-12.5-40.8,1.3C1154.8,2429.2,1154.4,2445.8,1164.6,2457.3z"/>
						</g>
					</g>
				</g>
			</g>
			<g>
				<g>
					<g>
						<g>
							<path class="st4" d="M685.3,2346.3c-4.4-10.1-6.7-18-7.5-26.6c-0.8-9.2,0-18.2,2.5-26.9c5.1-17.8,15.5-31.9,31.2-42
								c11.8-7.5,24.7-11.2,38.5-11.2c21.7,0,40.1,7.8,54.5,24.2c6.2,7,12.2,14.4,18.6,21.2c9.3,9.8,19.9,18.3,31.6,25.1
								c10.1,5.8,20.4,11.3,31.2,15.8c10.9,4.5,22.4,7.4,34.1,9.4c12.1,2.1,24.2,2.4,36.4,2.2c12.4-0.2,24.4,1.9,35.7,7.5
								c14,6.8,24.6,17.1,32,30.5c5,9.1,7.6,19,8.4,29.5c0.8,10.3-0.4,20.3-3.9,29.9c-4.3,11.7-11.1,22-20.7,30.3
								c-8.3,7.2-17.7,12.5-28.3,15.4c-13.7,3.7-27.4,4.1-41.1-0.3c-12-3.8-22.3-10.1-31-19.1c-2.7-2.8-5.3-5.8-7.6-8.8
								c-10.9-14.5-24.4-26.3-39.4-36.1c-9.7-6.3-20.2-11.6-30.8-16.5c-15.5-7.2-32-11.7-49.1-13.2c-9.9-0.9-19.9-1-29.8-1.2
								c-11.7-0.3-22.9-2.3-33.5-7.7c-8.5-4.4-16.2-9.9-22.3-17.2C690.9,2355.4,687.6,2349.6,685.3,2346.3z M722.5,2325.5
								c6.7,14.9,24.1,22.3,40.4,13.8c12.9-6.8,19.8-22.3,13.1-37.8c-6.7-15.4-23.3-21.7-38.6-14.9
								C722.8,2292.9,715.4,2309.9,722.5,2325.5z M934.3,2421.7c7.9,15.6,25.4,20.9,39.8,13c14.4-7.9,20.1-24.6,12-39.6
								c-7-13.1-23.5-20.6-40.3-11.1C933.2,2391.2,927.8,2407.3,934.3,2421.7z"/>
						</g>
						<g>
							<path class="st4" d="M482.6,2222.6c-3.3-10.5-4.8-18.7-4.7-27.2c0.1-9.2,1.9-18.1,5.3-26.5c6.9-17.2,18.7-30.1,35.4-38.5
								c12.5-6.2,25.7-8.5,39.5-7.1c21.6,2.3,39,12,51.7,29.8c5.5,7.7,10.6,15.6,16.3,23c8.2,10.8,17.8,20.3,28.7,28.3
								c9.4,6.9,19.1,13.4,29.3,19c10.3,5.7,21.5,9.7,32.9,12.9c11.8,3.4,23.8,4.9,36,6c12.3,1.1,24,4.5,34.7,11.2
								c13.2,8.2,22.7,19.6,28.6,33.7c4,9.6,5.6,19.8,5.3,30.3c-0.3,10.3-2.5,20.2-7,29.4c-5.5,11.2-13.3,20.7-23.7,28
								c-9,6.3-18.9,10.6-29.7,12.3c-14,2.3-27.6,1.2-40.8-4.6c-11.5-5.1-21.2-12.4-28.8-22.3c-2.4-3.1-4.6-6.3-6.6-9.6
								c-9.4-15.5-21.5-28.7-35.4-40.1c-9-7.3-18.9-13.7-28.8-19.6c-14.7-8.8-30.6-15-47.5-18.3c-9.7-1.9-19.6-3.1-29.5-4.4
								c-11.6-1.5-22.5-4.7-32.4-11.2c-8-5.3-15.1-11.5-20.4-19.4C487.2,2232.3,484.5,2226.2,482.6,2222.6z M521.7,2205.8
								c5,15.5,21.7,24.7,38.7,18c13.5-5.4,22.1-20.1,16.9-36.3c-5.1-16.1-20.9-24-36.9-18.9
								C525.4,2173.5,516.3,2189.6,521.7,2205.8z M722.2,2323.8c6.2,16.3,23.1,23.5,38.2,17.2c15.2-6.3,22.5-22.4,16.1-38.1
								c-5.6-13.8-21.2-23-38.9-15.2C724.2,2293.4,717.2,2308.9,722.2,2323.8z"/>
						</g>
					</g>
				</g>
			</g>
		</g>
		<g>
			<g>
				<g>
					<g>
						<g>
							<path class="st4" d="M321.5,2039c-0.3-10.8,0.5-18.8,2.8-26.8c2.6-8.6,6.6-16.5,12-23.5c11.1-14.3,25.6-23.3,43.5-26.7
								c13.4-2.5,26.4-1.2,38.9,3.9c19.7,7.9,33.4,21.6,40.6,41.7c3.1,8.6,5.8,17.4,9.2,25.9c4.9,12.3,11.3,23.8,19.5,34.2
								c7,8.9,14.4,17.6,22.5,25.6c8.2,8.1,17.6,14.8,27.4,20.9c10.2,6.3,21.1,10.9,32.2,15.2c11.3,4.4,21.4,10.6,29.7,19.7
								c10.2,11.2,16.1,24.4,17.9,39.2c1.2,10,0,20-3.1,29.8c-3,9.6-7.7,18.3-14.4,25.7c-8.2,9.1-18,15.9-29.7,19.9
								c-10.2,3.5-20.6,4.9-31.2,3.7c-13.8-1.6-26.3-6.3-37.1-15.2c-9.5-7.8-16.6-17.2-21.1-28.6c-1.4-3.5-2.7-7.1-3.7-10.8
								c-4.7-17.1-12.5-32.7-22.5-47c-6.5-9.3-14.1-17.8-21.9-26.1c-11.4-12.2-24.8-22.2-39.7-29.8c-8.6-4.4-17.6-8.1-26.5-12
								c-10.5-4.5-19.9-10.4-27.5-19.1c-6.1-7.1-11.1-14.8-14-23.6C323.3,2049.3,322.4,2042.9,321.5,2039z M362.7,2033.7
								c0.6,15.9,13.8,29,31.6,27.2c14.1-1.4,26.1-13,25.6-29.5c-0.5-16.4-13.2-28.1-29.6-27.5
								C374.8,2004.4,362,2017.1,362.7,2033.7z M519.6,2197.7c1.5,17,15.4,28.1,31.3,26.3c15.9-1.9,27.1-15,25.3-31.5
								c-1.6-14.4-13.8-27.2-32.5-24.7C529.6,2169.8,518.8,2182.4,519.6,2197.7z"/>
						</g>
						<g>
							<path class="st4" d="M182.9,1853.4c0.9-10.7,2.4-18.6,5.6-26.4c3.5-8.3,8.3-15.7,14.4-22.1c12.5-13.1,27.9-20.5,46-22
								c13.6-1.1,26.3,1.6,38.3,7.9c18.7,9.9,30.9,25,36,45.7c2.2,8.9,3.9,17.9,6.4,26.8c3.6,12.7,8.8,24.9,15.7,36.1
								c6,9.6,12.5,19.1,19.7,27.8c7.3,8.9,15.9,16.6,25.1,23.7c9.5,7.3,19.8,13.1,30.4,18.5c10.7,5.5,20.1,12.8,27.4,22.7
								c9,12.3,13.4,25.9,13.7,40.9c0.2,10.1-2.1,19.9-6.2,29.3c-4,9.2-9.6,17.4-17,24c-9.1,8.2-19.6,13.9-31.6,16.7
								c-10.5,2.4-21,2.7-31.4,0.4c-13.5-3-25.4-9-35.3-19c-8.6-8.8-14.7-18.9-18-30.7c-1-3.6-1.9-7.4-2.5-11.1
								c-2.8-17.5-9-33.8-17.5-49.1c-5.5-9.9-12.1-19.2-19-28.3c-10.1-13.3-22.3-24.7-36.3-33.8c-8.1-5.3-16.7-9.9-25.1-14.7
								c-10-5.6-18.7-12.4-25.3-21.9c-5.4-7.7-9.5-15.9-11.4-25C183.6,1863.9,183.3,1857.3,182.9,1853.4z M224.4,1852.4
								c-1.1,15.9,10.6,30.3,28.5,30.4c14.2,0.1,27.3-10.2,28.5-26.7c1.2-16.4-10.2-29.3-26.5-30.5
								C239.5,1824.5,225.4,1835.8,224.4,1852.4z M363,2032.1c-0.3,17.1,12.4,29.6,28.3,29.4c16-0.2,28.5-12.1,28.4-28.7
								c-0.1-14.5-10.8-28.5-29.7-27.9C375.9,2005.3,363.9,2016.7,363,2032.1z"/>
						</g>
					</g>
				</g>
			</g>
			<g>
				<g>
					<g>
						<g>
							<path class="st4" d="M102.7,1614.7c4.1-10.3,8-17.5,13.5-24.1c5.9-7.1,12.8-12.9,20.8-17.3c16.2-9,33.5-11.6,51.7-7.6
								c13.6,3,25.3,9.5,35.1,19.3c15.4,15.4,22.8,33.9,21.5,55.7c-0.6,9.4-1.6,18.8-1.8,28.1c-0.3,13.5,1.1,27,4.6,40.1
								c3,11.2,6.5,22.4,10.9,33.2c4.5,10.9,10.6,21,17.5,30.7c7.1,10,15.4,18.8,24.2,27.3c8.9,8.6,15.9,18.6,20,30.5
								c5.1,14.7,5.3,29.5,1.1,44.2c-2.9,9.9-8.1,18.9-14.9,26.8c-6.7,7.8-14.6,14.1-23.9,18.4c-11.4,5.2-23.4,7.7-36,6.8
								c-11-0.8-21.4-3.7-30.9-9.1c-12.3-7-22.2-16.5-28.8-29.2c-5.8-11.2-8.7-22.9-8.4-35.5c0.1-3.9,0.3-7.8,0.9-11.6
								c2.5-18,1.4-35.8-2.3-53.4c-2.4-11.3-6.1-22.5-10.1-33.4c-5.9-16.1-14.4-30.9-25.4-44c-6.4-7.6-13.3-14.8-20.2-22
								c-8.1-8.5-14.6-17.8-18.2-29.1c-2.9-9.1-4.5-18.4-3.7-27.9C100.2,1625.1,101.9,1618.6,102.7,1614.7z M143.6,1626.2
								c-5.8,15.2,1.3,32.8,18.8,38.3c13.9,4.4,29.8-1.8,36-17.5c6.1-15.7-1.1-31.8-16.8-37.9
								C166.8,1603.5,149.6,1610.3,143.6,1626.2z M225.4,1844c-5.4,16.6,3.2,32.7,18.9,37.4c15.8,4.6,31.6-3.2,36.5-19.5
								c4.3-14.2-2-31.2-20.7-36.3C246.1,1821.7,230.9,1829.3,225.4,1844z"/>
						</g>
						<g>
							<path class="st4" d="M46.8,1383.9c5.1-9.8,9.8-16.6,15.9-22.6c6.6-6.4,14.1-11.5,22.5-15c17.1-7.3,34.5-8.1,52.2-2.2
								c13.2,4.4,24.2,12.1,32.9,22.9c13.7,16.9,19.1,36.1,15.5,57.6c-1.6,9.3-3.5,18.5-4.8,27.8c-1.8,13.4-1.8,27,0.3,40.3
								c1.8,11.5,4.1,23,7.3,34.1c3.3,11.3,8.3,22,14.1,32.4c6,10.7,13.4,20.3,21.2,29.7c7.9,9.5,13.8,20.2,16.7,32.5
								c3.5,15.2,2.2,29.9-3.6,44.1c-3.9,9.6-10,17.9-17.7,25.1c-7.5,7.1-16,12.5-25.7,15.8c-11.9,4-24.1,5.2-36.5,3
								c-10.9-1.9-20.9-5.9-29.7-12.3c-11.5-8.3-20.4-18.7-25.6-32.1c-4.6-11.7-6.2-23.7-4.6-36.1c0.5-3.9,1.2-7.7,2.1-11.5
								c4.4-17.6,5.2-35.5,3.3-53.4c-1.2-11.5-3.7-23-6.5-34.3c-4.1-16.6-11-32.2-20.6-46.5c-5.5-8.2-11.7-16.1-17.8-23.9
								c-7.1-9.3-12.6-19.2-15-30.8c-2-9.4-2.5-18.8-0.7-28.1C43.2,1394,45.6,1387.8,46.8,1383.9z M86.2,1399.7
								c-7.4,14.6-2.2,32.8,14.7,40.1c13.4,5.8,29.8,1.4,37.6-13.7c7.8-15,2.2-31.7-12.7-39.4C111.7,1379.4,93.9,1384.4,86.2,1399.7
								z M144.6,1624.8c-7.2,16-0.3,32.9,14.9,39.1c15.2,6.3,31.7,0.1,38.3-15.6c5.8-13.7,1.3-31.2-16.8-38.3
								C167.5,1604.8,151.6,1610.7,144.6,1624.8z"/>
						</g>
					</g>
				</g>
			</g>
		</g>
		<g>
			<g>
				<g>
					<g>
						<g>
							<path class="st4" d="M62.7,1140.2c7.4-7.8,13.6-13,20.9-16.9c7.9-4.3,16.3-7,25.1-8.1c18-2.3,34.6,1.6,49.6,11.9
								c11.3,7.7,19.5,17.8,24.8,30.3c8.3,19.5,8.3,38.9-0.8,58.2c-3.9,8.3-8.2,16.4-11.8,24.8c-5.2,12.1-8.8,24.9-10.4,37.9
								c-1.4,11.3-2.3,22.7-2.2,34c0.1,11.5,2,22.9,4.6,34.2c2.8,11.7,7.1,22.6,12,33.5c4.9,11.1,7.6,22.6,7,34.9
								c-0.7,15.2-5.9,28.6-15.1,40.4c-6.2,8-14.2,14.2-23.3,18.9c-8.9,4.6-18.4,7.5-28.3,8c-12.2,0.6-24-1.5-35.1-6.9
								c-9.7-4.7-18-11.1-24.7-19.5c-8.6-10.8-14.1-23-15.5-37c-1.2-12.2,0.5-23.9,5.3-35.2c1.5-3.5,3.1-6.9,5-10.2
								c8.8-15.4,14.3-31.9,17.3-49.2c2-11.1,2.6-22.6,3-33.9c0.5-16.7-1.8-33.2-7-49.1c-3-9.2-6.7-18.2-10.3-27.2
								c-4.2-10.6-6.7-21.4-5.9-33c0.7-9.3,2.6-18.3,6.8-26.6C56.6,1148.7,60.5,1143.5,62.7,1140.2z M95.5,1165.5
								c-10.8,11.7-10.8,30.2,3.1,41.5c11,9,27.6,9.2,39-2.8c11.3-12,10.5-29.2-1.5-40.4C124.8,1153.3,106.8,1153.2,95.5,1165.5z
								 M90.5,1392.4c-11,13.1-9,30.8,3.5,40.7c12.6,9.9,29.7,8.6,40.1-4.4c9.1-11.3,9.5-28.9-5.6-40.4
								C117.3,1379.7,100.8,1381.1,90.5,1392.4z"/>
						</g>
						<g>
							<path class="st4" d="M95.9,910.9c8.2-7,14.9-11.5,22.6-14.6c8.3-3.4,17-5.3,25.8-5.5c18.1-0.4,34.2,5.2,48.1,17
								c10.4,8.8,17.5,19.8,21.5,32.7c6.2,20.3,4.2,39.6-6.9,57.8c-4.8,7.8-9.9,15.5-14.4,23.5c-6.5,11.5-11.4,23.8-14.4,36.6
								c-2.6,11.1-4.7,22.3-5.8,33.6c-1.1,11.4-0.5,23,1,34.5c1.5,11.9,4.7,23.2,8.4,34.6c3.7,11.5,5.2,23.3,3.3,35.4
								c-2.3,15-8.9,27.8-19.3,38.6c-7,7.3-15.6,12.6-25.1,16.4c-9.4,3.7-19.1,5.5-29,5c-12.2-0.7-23.7-4-34.2-10.6
								c-9.1-5.7-16.7-12.9-22.5-21.9c-7.4-11.7-11.6-24.3-11.5-38.4c0.1-12.3,3-23.7,9-34.4c1.9-3.3,3.9-6.6,6.1-9.6
								c10.3-14.4,17.6-30.3,22.4-47.1c3.1-10.9,5-22.2,6.6-33.4c2.3-16.6,1.7-33.2-1.8-49.6c-2-9.5-4.8-18.8-7.4-28.1
								c-3.1-11-4.4-22-2.4-33.4c1.6-9.2,4.6-17.9,9.6-25.7C89,918.7,93.4,914,95.9,910.9z M125.9,939.5
								c-12,10.5-13.9,28.9-1.3,41.6c10,10.1,26.5,12.1,39,1.3c12.5-10.7,13.5-27.9,2.8-40.3C156.3,930.5,138.4,928.5,125.9,939.5z
								 M96.9,1164.6c-12.3,11.9-12.2,29.7-0.8,40.8c11.5,11.2,28.7,11.6,40.4-0.2c10.2-10.3,12.5-27.8-1.3-40.8
								C125,1154.8,108.4,1154.4,96.9,1164.6z"/>
						</g>
					</g>
				</g>
			</g>
			<g>
				<g>
					<g>
						<g>
							<path class="st4" d="M207.9,685.3c10.1-4.4,18-6.7,26.6-7.5c9.2-0.8,18.2,0,26.9,2.5c17.8,5.1,31.9,15.5,42,31.2
								c7.5,11.8,11.2,24.7,11.2,38.5c0,21.7-7.8,40.1-24.2,54.5c-7,6.2-14.4,12.2-21.2,18.6c-9.8,9.3-18.3,19.9-25.1,31.6
								c-5.8,10.1-11.3,20.4-15.8,31.2c-4.5,10.9-7.4,22.4-9.4,34.1c-2.1,12.1-2.4,24.2-2.2,36.4c0.2,12.4-1.9,24.4-7.5,35.7
								c-6.8,14-17.1,24.6-30.5,32c-9.1,5-19,7.6-29.5,8.4c-10.3,0.8-20.3-0.4-29.9-3.9c-11.7-4.3-22-11.1-30.3-20.7
								c-7.2-8.3-12.5-17.7-15.4-28.3c-3.7-13.7-4.1-27.4,0.3-41.1c3.8-12,10.1-22.3,19.1-31c2.8-2.7,5.8-5.3,8.8-7.6
								c14.5-10.9,26.3-24.4,36.1-39.4c6.3-9.7,11.6-20.2,16.5-30.8c7.2-15.5,11.7-32,13.2-49.1c0.9-9.9,1-19.9,1.2-29.8
								c0.3-11.7,2.3-22.9,7.7-33.5c4.4-8.5,9.9-16.2,17.2-22.3C198.8,690.9,204.6,687.6,207.9,685.3z M228.7,722.5
								c-14.9,6.7-22.3,24.1-13.8,40.4c6.8,12.9,22.3,19.8,37.8,13.1c15.4-6.7,21.7-23.3,14.9-38.6
								C261.3,722.8,244.3,715.4,228.7,722.5z M132.6,934.3c-15.6,7.9-20.9,25.4-13,39.8c7.9,14.4,24.6,20.1,39.6,12
								c13.1-7,20.6-23.5,11.1-40.3C163,933.2,146.9,927.8,132.6,934.3z"/>
						</g>
						<g>
							<path class="st4" d="M331.6,482.6c10.5-3.3,18.7-4.8,27.2-4.7c9.2,0.1,18.1,1.9,26.5,5.3c17.2,6.9,30.1,18.7,38.5,35.4
								c6.2,12.5,8.5,25.7,7.1,39.5c-2.3,21.6-12,39-29.8,51.7c-7.7,5.5-15.6,10.6-23,16.3c-10.8,8.2-20.3,17.8-28.3,28.7
								c-6.9,9.4-13.4,19.1-19,29.3c-5.7,10.3-9.7,21.5-12.9,32.9c-3.4,11.8-4.9,23.8-6,36c-1.1,12.3-4.5,24-11.2,34.7
								c-8.2,13.2-19.6,22.7-33.7,28.6c-9.6,4-19.8,5.6-30.3,5.3c-10.3-0.3-20.2-2.5-29.4-7c-11.2-5.5-20.7-13.3-28-23.7
								c-6.3-9-10.6-18.9-12.3-29.7c-2.3-14-1.2-27.6,4.6-40.8c5.1-11.5,12.4-21.2,22.3-28.8c3.1-2.4,6.3-4.6,9.6-6.6
								c15.5-9.4,28.7-21.5,40.1-35.4c7.3-9,13.7-18.9,19.6-28.8c8.8-14.7,15-30.6,18.3-47.5c1.9-9.7,3.1-19.6,4.4-29.5
								c1.5-11.6,4.7-22.5,11.2-32.4c5.3-8,11.5-15.1,19.4-20.4C321.9,487.2,328,484.5,331.6,482.6z M348.4,521.7
								c-15.5,5-24.7,21.7-18,38.7c5.4,13.5,20.1,22.1,36.3,16.9c16.1-5.1,24-20.9,18.9-36.9C380.7,525.4,364.6,516.3,348.4,521.7z
								 M230.4,722.2c-16.3,6.2-23.5,23.1-17.2,38.2c6.3,15.2,22.4,22.5,38.1,16.1c13.8-5.6,23-21.2,15.2-38.9
								C260.8,724.2,245.3,717.2,230.4,722.2z"/>
						</g>
					</g>
				</g>
			</g>
		</g>
		<g>
			<g>
				<g>
					<g>
						<g>
							<path class="st4" d="M515.2,321.5c10.8-0.3,18.8,0.5,26.8,2.8c8.6,2.6,16.5,6.6,23.5,12c14.3,11.1,23.3,25.6,26.7,43.5
								c2.5,13.4,1.2,26.4-3.9,38.9c-7.9,19.7-21.6,33.4-41.7,40.6c-8.6,3.1-17.4,5.8-25.9,9.2c-12.3,4.9-23.8,11.3-34.2,19.5
								c-8.9,7-17.6,14.4-25.6,22.5c-8.1,8.2-14.8,17.6-20.9,27.4c-6.3,10.2-10.9,21.1-15.3,32.2c-4.4,11.3-10.6,21.4-19.7,29.7
								c-11.2,10.2-24.4,16.1-39.2,17.9c-10,1.2-20,0-29.8-3.1c-9.6-3-18.3-7.7-25.7-14.4c-9.1-8.2-15.9-18-19.9-29.7
								c-3.5-10.2-4.9-20.6-3.7-31.2c1.6-13.8,6.3-26.3,15.2-37.1c7.8-9.5,17.2-16.6,28.6-21.1c3.5-1.4,7.1-2.7,10.8-3.7
								c17.1-4.7,32.7-12.5,47-22.5c9.3-6.5,17.8-14.1,26.1-21.9c12.2-11.4,22.2-24.8,29.8-39.7c4.4-8.6,8.1-17.6,12-26.5
								c4.5-10.5,10.4-19.9,19.1-27.5c7.1-6.1,14.8-11.1,23.6-14C504.9,323.3,511.3,322.4,515.2,321.5z M520.5,362.7
								c-15.9,0.6-29,13.8-27.2,31.6c1.4,14.1,13,26.1,29.5,25.6c16.4-0.5,28.1-13.2,27.5-29.6C549.9,374.8,537.2,362,520.5,362.7z
								 M356.5,519.6c-17,1.5-28.1,15.4-26.3,31.3c1.9,15.9,15,27.1,31.5,25.3c14.4-1.6,27.2-13.8,24.7-32.5
								C384.5,529.6,371.8,518.8,356.5,519.6z"/>
						</g>
						<g>
							<path class="st4" d="M700.8,182.9c10.7,0.9,18.6,2.4,26.4,5.6c8.3,3.5,15.7,8.3,22.1,14.4c13.1,12.5,20.5,27.9,22,46
								c1.1,13.6-1.6,26.3-7.9,38.3c-9.9,18.7-25,30.9-45.7,36c-8.9,2.2-17.9,3.9-26.8,6.4c-12.7,3.6-24.9,8.8-36.1,15.7
								c-9.6,6-19.1,12.5-27.8,19.7c-8.9,7.3-16.6,15.9-23.7,25.1c-7.3,9.5-13.1,19.8-18.5,30.4c-5.5,10.7-12.8,20.1-22.7,27.4
								c-12.3,9-25.9,13.4-40.9,13.7c-10.1,0.2-19.9-2.1-29.3-6.2c-9.2-4-17.4-9.6-24-17c-8.2-9.1-13.9-19.6-16.7-31.6
								c-2.4-10.5-2.7-21-0.4-31.4c3-13.5,9-25.4,19-35.3c8.8-8.6,18.9-14.7,30.7-18c3.6-1,7.4-1.9,11.1-2.5
								c17.5-2.8,33.8-9,49.1-17.5c9.9-5.5,19.2-12.1,28.3-19c13.3-10.1,24.7-22.3,33.8-36.3c5.3-8.1,9.9-16.7,14.7-25.1
								c5.6-10,12.4-18.7,21.9-25.3c7.7-5.4,15.9-9.5,25-11.4C690.4,183.6,696.9,183.3,700.8,182.9z M701.8,224.4
								c-15.9-1.1-30.3,10.6-30.4,28.5c-0.1,14.2,10.2,27.3,26.7,28.5c16.4,1.2,29.3-10.2,30.5-26.5
								C729.7,239.5,718.4,225.4,701.8,224.4z M522.1,363c-17.1-0.3-29.6,12.4-29.4,28.3c0.2,16,12.1,28.5,28.7,28.4
								c14.5-0.1,28.5-10.8,27.9-29.7C548.9,375.9,537.5,363.9,522.1,363z"/>
						</g>
					</g>
				</g>
			</g>
			<g>
				<g>
					<g>
						<g>
							<path class="st4" d="M939.5,102.7c10.3,4.1,17.5,8,24.1,13.5c7.1,5.9,12.9,12.8,17.3,20.8c9,16.2,11.6,33.5,7.6,51.7
								c-3,13.6-9.5,25.3-19.3,35.1c-15.4,15.4-33.9,22.8-55.7,21.5c-9.4-0.6-18.8-1.6-28.1-1.8c-13.5-0.3-27,1.1-40.1,4.6
								c-11.2,3-22.4,6.5-33.2,10.9c-10.9,4.5-21,10.6-30.7,17.5c-10,7.1-18.8,15.4-27.3,24.2c-8.6,8.9-18.6,15.9-30.5,20
								c-14.7,5.1-29.5,5.3-44.2,1.1c-9.9-2.9-18.9-8.1-26.8-14.9c-7.8-6.7-14.1-14.6-18.4-23.9c-5.2-11.4-7.7-23.4-6.8-36
								c0.8-11,3.7-21.4,9.1-30.9c7-12.3,16.5-22.2,29.2-28.8c11.2-5.8,22.9-8.7,35.5-8.4c3.9,0.1,7.8,0.3,11.6,0.9
								c18,2.5,35.8,1.4,53.4-2.3c11.3-2.4,22.5-6.1,33.4-10.1c16.1-5.9,30.9-14.4,44-25.4c7.6-6.4,14.8-13.3,22-20.2
								c8.5-8.1,17.8-14.6,29.1-18.2c9.1-2.9,18.4-4.5,27.9-3.7C929.1,100.2,935.6,101.9,939.5,102.7z M928,143.6
								c-15.2-5.8-32.8,1.3-38.3,18.8c-4.4,13.9,1.8,29.8,17.5,36c15.7,6.1,31.8-1.1,37.9-16.8C950.7,166.8,944,149.6,928,143.6z
								 M710.2,225.4c-16.6-5.4-32.7,3.2-37.4,18.9c-4.6,15.8,3.2,31.6,19.5,36.5c14.2,4.3,31.2-2,36.3-20.7
								C732.5,246.1,724.9,230.9,710.2,225.4z"/>
						</g>
						<g>
							<path class="st4" d="M1170.3,46.8c9.8,5.1,16.6,9.8,22.6,15.9c6.4,6.6,11.5,14.1,15,22.5c7.3,17.1,8.1,34.5,2.2,52.2
								c-4.4,13.2-12.1,24.2-22.9,32.9c-16.9,13.7-36.1,19.1-57.6,15.5c-9.3-1.6-18.5-3.5-27.8-4.8c-13.4-1.8-27-1.8-40.3,0.3
								c-11.5,1.8-23,4.1-34.1,7.3c-11.3,3.3-22,8.3-32.4,14.1c-10.7,6-20.3,13.4-29.7,21.2c-9.5,7.9-20.2,13.8-32.5,16.7
								c-15.2,3.5-29.9,2.2-44.1-3.6c-9.6-3.9-17.9-10-25.1-17.7c-7.1-7.5-12.5-16-15.8-25.7c-4-11.9-5.2-24.1-3-36.5
								c1.9-10.9,5.9-20.9,12.3-29.7c8.3-11.5,18.7-20.4,32.1-25.6c11.7-4.6,23.7-6.2,36.1-4.6c3.9,0.5,7.7,1.2,11.5,2.1
								c17.6,4.4,35.5,5.2,53.4,3.3c11.5-1.2,23-3.7,34.3-6.5c16.6-4.1,32.2-11,46.5-20.6c8.2-5.5,16.1-11.7,23.9-17.8
								c9.3-7.1,19.2-12.6,30.8-15c9.4-2,18.8-2.5,28.1-0.7C1160.2,43.2,1166.5,45.6,1170.3,46.8z M1154.6,86.2
								c-14.6-7.4-32.8-2.2-40.1,14.7c-5.8,13.4-1.4,29.8,13.7,37.6c15,7.8,31.7,2.2,39.4-12.7
								C1174.8,111.7,1169.8,93.9,1154.6,86.2z M929.4,144.6c-16-7.2-32.9-0.3-39.1,14.9c-6.3,15.2-0.1,31.7,15.6,38.3
								c13.7,5.8,31.2,1.3,38.3-16.8C949.4,167.5,943.5,151.6,929.4,144.6z"/>
						</g>
					</g>
				</g>
			</g>
		</g>
		<g>
			<g>
				<g>
					<g>
						<g>
							<path class="st4" d="M1414,62.7c7.8,7.4,13,13.6,16.9,20.9c4.3,7.9,7,16.3,8.1,25.1c2.3,18-1.6,34.6-11.9,49.6
								c-7.7,11.3-17.8,19.5-30.3,24.8c-19.5,8.3-38.9,8.3-58.2-0.8c-8.3-3.9-16.4-8.2-24.8-11.8c-12.1-5.2-24.9-8.8-37.9-10.4
								c-11.3-1.4-22.7-2.3-34-2.2c-11.5,0.1-22.9,2-34.2,4.6c-11.7,2.8-22.6,7.1-33.5,12c-11.1,4.9-22.6,7.6-34.9,7
								c-15.2-0.7-28.6-5.9-40.4-15.1c-8-6.2-14.2-14.2-18.9-23.3c-4.6-8.9-7.5-18.4-8-28.3c-0.6-12.2,1.5-24,6.9-35.1
								c4.7-9.7,11.1-18,19.5-24.7c10.8-8.6,23-14.1,37-15.5c12.2-1.2,23.9,0.5,35.2,5.3c3.5,1.5,6.9,3.1,10.2,5
								c15.4,8.8,31.9,14.3,49.2,17.3c11.1,2,22.6,2.6,33.9,3c16.7,0.5,33.2-1.8,49.1-7c9.2-3,18.2-6.7,27.2-10.3
								c10.6-4.2,21.4-6.7,33-5.9c9.3,0.7,18.3,2.6,26.6,6.8C1405.5,56.6,1410.7,60.5,1414,62.7z M1388.7,95.5
								c-11.7-10.8-30.2-10.8-41.5,3.1c-9,11-9.2,27.6,2.8,39c12,11.3,29.2,10.5,40.4-1.5C1400.9,124.8,1401,106.8,1388.7,95.5z
								 M1161.8,90.5c-13.1-11-30.8-9-40.7,3.5c-9.9,12.6-8.6,29.7,4.4,40.1c11.3,9.1,28.9,9.5,40.4-5.6
								C1174.5,117.3,1173.2,100.8,1161.8,90.5z"/>
						</g>
						<g>
							<path class="st4" d="M1643.3,95.9c7,8.2,11.5,14.9,14.6,22.6c3.4,8.3,5.3,17,5.5,25.8c0.4,18.1-5.2,34.2-17,48.1
								c-8.8,10.4-19.8,17.5-32.7,21.5c-20.3,6.2-39.6,4.2-57.8-6.9c-7.8-4.8-15.5-9.9-23.5-14.4c-11.5-6.5-23.8-11.4-36.6-14.4
								c-11.1-2.6-22.3-4.7-33.6-5.8c-11.4-1.1-23-0.5-34.5,1c-11.9,1.5-23.2,4.7-34.6,8.4c-11.5,3.7-23.3,5.2-35.4,3.3
								c-15-2.3-27.8-8.9-38.6-19.3c-7.3-7-12.6-15.6-16.4-25.1c-3.7-9.4-5.5-19.1-5-29c0.7-12.2,4-23.7,10.6-34.2
								c5.7-9.1,12.9-16.7,21.9-22.5c11.7-7.4,24.3-11.6,38.4-11.5c12.3,0.1,23.7,3,34.4,9c3.3,1.9,6.6,3.9,9.6,6.1
								c14.4,10.3,30.3,17.6,47.1,22.4c10.9,3.1,22.2,5,33.4,6.6c16.6,2.3,33.2,1.7,49.6-1.8c9.5-2,18.8-4.8,28.1-7.4
								c11-3.1,22-4.4,33.4-2.4c9.2,1.6,17.9,4.6,25.7,9.6C1635.5,89,1640.2,93.4,1643.3,95.9z M1614.7,125.9
								c-10.5-12-28.9-13.9-41.6-1.3c-10.1,10-12.1,26.5-1.3,39c10.7,12.5,27.9,13.5,40.3,2.8
								C1623.7,156.3,1625.7,138.4,1614.7,125.9z M1389.6,96.9c-11.9-12.3-29.7-12.2-40.8-0.8c-11.2,11.5-11.6,28.7,0.2,40.4
								c10.3,10.2,27.8,12.5,40.8-1.3C1399.4,125,1399.8,108.4,1389.6,96.9z"/>
						</g>
					</g>
				</g>
			</g>
			<g>
				<g>
					<g>
						<g>
							<path class="st4" d="M1868.9,207.9c4.4,10.1,6.7,18,7.5,26.6c0.8,9.2,0,18.2-2.5,26.9c-5.1,17.8-15.5,31.9-31.2,42
								c-11.8,7.5-24.7,11.2-38.5,11.2c-21.7,0-40.1-7.8-54.5-24.2c-6.2-7-12.2-14.4-18.6-21.2c-9.3-9.8-19.9-18.3-31.6-25.1
								c-10.1-5.8-20.4-11.3-31.2-15.8c-10.9-4.5-22.4-7.4-34.1-9.4c-12.1-2.1-24.2-2.4-36.4-2.2c-12.4,0.2-24.4-1.9-35.7-7.5
								c-14-6.8-24.6-17.1-32-30.5c-5-9.1-7.6-19-8.4-29.5c-0.8-10.3,0.4-20.3,3.9-29.9c4.3-11.7,11.1-22,20.7-30.3
								c8.3-7.2,17.7-12.5,28.3-15.4c13.7-3.7,27.4-4.1,41.1,0.3c12,3.8,22.3,10.1,31,19.1c2.7,2.8,5.3,5.8,7.6,8.8
								c10.9,14.5,24.4,26.3,39.4,36.1c9.7,6.3,20.2,11.6,30.8,16.5c15.5,7.2,32,11.7,49.1,13.2c9.9,0.9,19.9,1,29.8,1.2
								c11.7,0.3,22.9,2.3,33.5,7.7c8.5,4.4,16.2,9.9,22.3,17.2C1863.3,198.8,1866.6,204.6,1868.9,207.9z M1831.7,228.7
								c-6.7-14.9-24.1-22.3-40.4-13.8c-12.9,6.8-19.8,22.3-13.1,37.8c6.7,15.4,23.3,21.7,38.6,14.9
								C1831.4,261.3,1838.8,244.3,1831.7,228.7z M1619.9,132.6c-7.9-15.6-25.4-20.9-39.8-13s-20.1,24.6-12,39.6
								c7,13.1,23.5,20.6,40.3,11.1C1621,163,1626.5,146.9,1619.9,132.6z"/>
						</g>
						<g>
							<path class="st4" d="M2071.6,331.6c3.3,10.5,4.8,18.7,4.7,27.2c-0.1,9.2-1.9,18.1-5.3,26.5c-6.9,17.2-18.7,30.1-35.4,38.5
								c-12.5,6.2-25.7,8.5-39.5,7.1c-21.6-2.3-39-12-51.7-29.8c-5.5-7.7-10.6-15.6-16.3-23c-8.2-10.8-17.8-20.3-28.7-28.3
								c-9.4-6.9-19.1-13.4-29.3-19c-10.3-5.7-21.5-9.7-32.9-12.9c-11.8-3.4-23.8-4.9-36-6c-12.3-1.1-24-4.5-34.7-11.2
								c-13.2-8.2-22.7-19.6-28.6-33.7c-4-9.6-5.6-19.8-5.3-30.3c0.3-10.3,2.5-20.2,7-29.4c5.5-11.2,13.3-20.7,23.7-28
								c9-6.3,18.9-10.6,29.7-12.3c14-2.3,27.6-1.2,40.8,4.6c11.5,5.1,21.2,12.4,28.8,22.3c2.4,3.1,4.6,6.3,6.6,9.6
								c9.4,15.5,21.5,28.7,35.4,40.1c9,7.3,18.9,13.7,28.8,19.6c14.7,8.8,30.6,15,47.5,18.3c9.7,1.9,19.6,3.1,29.5,4.4
								c11.6,1.5,22.5,4.7,32.4,11.2c8,5.3,15.1,11.5,20.4,19.4C2067,321.9,2069.7,328,2071.6,331.6z M2032.5,348.4
								c-5-15.5-21.7-24.7-38.7-18c-13.5,5.4-22.1,20.1-16.9,36.3c5.1,16.1,20.9,24,36.9,18.9
								C2028.8,380.7,2037.9,364.6,2032.5,348.4z M1832,230.4c-6.2-16.3-23.1-23.5-38.2-17.2c-15.2,6.3-22.5,22.4-16.1,38.1
								c5.6,13.8,21.2,23,38.9,15.2C1830,260.8,1837.1,245.3,1832,230.4z"/>
						</g>
					</g>
				</g>
			</g>
		</g>
		<g>
			<g>
				<g>
					<g>
						<g>
							<path class="st4" d="M2232.7,515.2c0.3,10.8-0.5,18.8-2.8,26.8c-2.6,8.6-6.6,16.5-12,23.5c-11.1,14.3-25.6,23.3-43.5,26.7
								c-13.4,2.5-26.4,1.2-38.9-3.9c-19.7-7.9-33.4-21.6-40.6-41.7c-3.1-8.6-5.8-17.4-9.2-25.9c-4.9-12.3-11.3-23.8-19.5-34.2
								c-7-8.9-14.4-17.6-22.5-25.6c-8.2-8.1-17.6-14.8-27.4-20.9c-10.2-6.3-21.1-10.9-32.2-15.3c-11.3-4.4-21.4-10.6-29.7-19.7
								c-10.2-11.2-16.1-24.4-17.9-39.2c-1.2-10,0-20,3.1-29.8c3-9.6,7.7-18.3,14.4-25.7c8.2-9.1,18-15.9,29.7-19.9
								c10.2-3.5,20.6-4.9,31.2-3.7c13.8,1.6,26.3,6.3,37.1,15.2c9.5,7.8,16.6,17.2,21.1,28.6c1.4,3.5,2.7,7.1,3.7,10.8
								c4.7,17.1,12.5,32.7,22.5,47c6.5,9.3,14.1,17.8,21.9,26.1c11.4,12.2,24.8,22.2,39.7,29.8c8.6,4.4,17.6,8.1,26.5,12
								c10.5,4.5,19.9,10.4,27.5,19.1c6.1,7.1,11.1,14.8,14,23.6C2230.9,504.9,2231.8,511.3,2232.7,515.2z M2191.5,520.5
								c-0.6-15.9-13.8-29-31.6-27.2c-14.1,1.4-26.1,13-25.6,29.5c0.5,16.4,13.2,28.1,29.6,27.5
								C2179.4,549.9,2192.2,537.2,2191.5,520.5z M2034.6,356.5c-1.5-17-15.4-28.1-31.3-26.3c-15.9,1.9-27.1,15-25.3,31.5
								c1.6,14.4,13.8,27.2,32.5,24.7C2024.6,384.5,2035.4,371.8,2034.6,356.5z"/>
						</g>
						<g>
							<path class="st4" d="M2371.3,700.8c-0.9,10.7-2.4,18.6-5.6,26.4c-3.5,8.3-8.3,15.7-14.4,22.1c-12.5,13.1-27.9,20.5-46,22
								c-13.6,1.1-26.3-1.6-38.3-7.9c-18.7-9.9-30.9-25-36-45.7c-2.2-8.9-3.9-17.9-6.4-26.8c-3.6-12.7-8.8-24.9-15.7-36.1
								c-6-9.6-12.5-19.1-19.7-27.8c-7.3-8.9-15.9-16.6-25.1-23.7c-9.5-7.3-19.8-13.1-30.4-18.5c-10.7-5.5-20.1-12.8-27.4-22.7
								c-9-12.3-13.4-25.9-13.7-40.9c-0.2-10.1,2.1-19.9,6.2-29.3c4-9.2,9.6-17.4,17-24c9.1-8.2,19.6-13.9,31.6-16.7
								c10.5-2.4,21-2.7,31.4-0.4c13.5,3,25.4,9,35.3,19c8.6,8.8,14.7,18.9,18,30.7c1,3.6,1.9,7.4,2.5,11.1
								c2.8,17.5,9,33.8,17.5,49.1c5.5,9.9,12.1,19.2,19,28.3c10.1,13.3,22.3,24.7,36.3,33.8c8.1,5.3,16.7,9.9,25.1,14.7
								c10,5.6,18.7,12.4,25.3,21.9c5.4,7.7,9.5,15.9,11.4,25C2370.7,690.4,2370.9,696.9,2371.3,700.8z M2329.8,701.8
								c1.1-15.9-10.6-30.3-28.5-30.4c-14.2-0.1-27.3,10.2-28.5,26.7c-1.2,16.4,10.2,29.3,26.5,30.5
								C2314.7,729.7,2328.8,718.4,2329.8,701.8z M2191.2,522.1c0.3-17.1-12.4-29.6-28.3-29.4c-16,0.2-28.5,12.1-28.4,28.7
								c0.1,14.5,10.8,28.5,29.7,27.9C2178.3,548.9,2190.3,537.5,2191.2,522.1z"/>
						</g>
					</g>
				</g>
			</g>
			<g>
				<g>
					<g>
						<g>
							<path class="st4" d="M2451.6,939.5c-4.1,10.3-8,17.5-13.5,24.1c-5.9,7.1-12.8,12.9-20.8,17.3c-16.2,9-33.5,11.6-51.7,7.6
								c-13.6-3-25.3-9.5-35.1-19.3c-15.4-15.4-22.8-33.9-21.5-55.7c0.6-9.4,1.6-18.8,1.8-28.1c0.3-13.5-1.1-27-4.6-40.1
								c-3-11.2-6.5-22.4-10.9-33.2c-4.5-10.9-10.6-21-17.5-30.7c-7.1-10-15.4-18.8-24.2-27.3c-8.9-8.6-15.9-18.6-20-30.5
								c-5.1-14.7-5.3-29.5-1.1-44.2c2.9-9.9,8.1-18.9,14.9-26.8c6.7-7.8,14.6-14.1,23.9-18.4c11.4-5.2,23.4-7.7,36-6.8
								c11,0.8,21.4,3.7,30.9,9.1c12.3,7,22.2,16.5,28.8,29.2c5.8,11.2,8.7,22.9,8.4,35.5c-0.1,3.9-0.3,7.8-0.9,11.6
								c-2.5,18-1.4,35.8,2.3,53.4c2.4,11.3,6.1,22.5,10.1,33.4c5.9,16.1,14.4,30.9,25.4,44c6.4,7.6,13.3,14.8,20.2,22
								c8.1,8.5,14.6,17.8,18.2,29.1c2.9,9.1,4.5,18.4,3.7,27.9C2454.1,929.1,2452.3,935.6,2451.6,939.5z M2410.6,928
								c5.8-15.2-1.3-32.8-18.8-38.3c-13.9-4.4-29.8,1.8-36,17.5c-6.1,15.7,1.1,31.8,16.8,37.9C2387.4,950.7,2404.6,944,2410.6,928z
								 M2328.8,710.2c5.4-16.6-3.2-32.7-18.9-37.4c-15.8-4.6-31.6,3.2-36.5,19.5c-4.3,14.2,2,31.2,20.7,36.3
								C2308.1,732.5,2323.3,724.9,2328.8,710.2z"/>
						</g>
						<g>
							<path class="st4" d="M2507.5,1170.3c-5.1,9.8-9.8,16.6-15.9,22.6c-6.6,6.4-14.1,11.5-22.5,15c-17.1,7.3-34.5,8.1-52.2,2.2
								c-13.2-4.4-24.2-12.1-32.9-22.9c-13.7-16.9-19.1-36.1-15.5-57.6c1.6-9.3,3.5-18.5,4.8-27.8c1.8-13.4,1.8-27-0.3-40.3
								c-1.8-11.5-4.1-23-7.3-34.1c-3.3-11.3-8.3-22-14.1-32.4c-6-10.7-13.4-20.3-21.2-29.7c-7.9-9.5-13.8-20.2-16.7-32.5
								c-3.5-15.2-2.2-29.9,3.6-44.1c3.9-9.6,10-17.9,17.7-25.1c7.5-7.1,16-12.5,25.7-15.8c11.9-4,24.1-5.2,36.5-3
								c10.9,1.9,20.9,5.9,29.7,12.3c11.5,8.3,20.4,18.7,25.6,32.1c4.6,11.7,6.2,23.7,4.6,36.1c-0.5,3.9-1.2,7.7-2.1,11.5
								c-4.4,17.6-5.2,35.5-3.3,53.4c1.2,11.5,3.7,23,6.5,34.3c4.1,16.6,11,32.2,20.6,46.5c5.5,8.2,11.7,16.1,17.8,23.9
								c7.1,9.3,12.6,19.2,15,30.8c2,9.4,2.5,18.8,0.7,28.1C2511,1160.2,2508.6,1166.5,2507.5,1170.3z M2468,1154.6
								c7.4-14.6,2.2-32.8-14.7-40.1c-13.4-5.8-29.8-1.4-37.6,13.7c-7.8,15-2.2,31.7,12.7,39.4
								C2442.5,1174.8,2460.3,1169.8,2468,1154.6z M2409.6,929.4c7.2-16,0.3-32.9-14.9-39.1c-15.2-6.3-31.7-0.1-38.3,15.6
								c-5.8,13.7-1.3,31.2,16.8,38.3C2386.7,949.4,2402.6,943.5,2409.6,929.4z"/>
						</g>
					</g>
				</g>
			</g>
		</g>
		<g>
			<g>
				<g>
					<g>
						<g>
							<path class="st4" d="M2491.6,1414c-7.4,7.8-13.6,13-20.9,16.9c-7.9,4.3-16.3,7-25.1,8.1c-18,2.3-34.6-1.6-49.6-11.9
								c-11.3-7.7-19.5-17.8-24.8-30.3c-8.3-19.5-8.3-38.9,0.8-58.2c3.9-8.3,8.2-16.4,11.8-24.8c5.2-12.1,8.8-24.9,10.4-37.9
								c1.4-11.3,2.3-22.7,2.2-34c-0.1-11.5-2-22.9-4.6-34.2c-2.8-11.7-7.1-22.6-12-33.5c-4.9-11.1-7.6-22.6-7-34.9
								c0.7-15.2,5.9-28.6,15.1-40.4c6.2-8,14.2-14.2,23.3-18.9c8.9-4.6,18.4-7.5,28.3-8c12.2-0.6,24,1.5,35.1,6.9
								c9.7,4.7,18,11.1,24.7,19.5c8.6,10.8,14.1,23,15.5,37c1.2,12.2-0.5,23.9-5.3,35.2c-1.5,3.5-3.1,6.9-5,10.2
								c-8.8,15.4-14.3,31.9-17.3,49.2c-2,11.1-2.6,22.6-3,33.9c-0.5,16.7,1.8,33.2,7,49.1c3,9.2,6.7,18.2,10.3,27.2
								c4.2,10.6,6.7,21.4,5.9,33c-0.7,9.3-2.6,18.3-6.8,26.6C2497.6,1405.5,2493.7,1410.7,2491.6,1414z M2458.7,1388.7
								c10.8-11.7,10.8-30.2-3.1-41.5c-11-9-27.6-9.2-39,2.8c-11.3,12-10.5,29.2,1.5,40.4C2429.4,1400.9,2447.4,1401,2458.7,1388.7z
								 M2463.7,1161.8c11-13.1,9-30.8-3.5-40.7c-12.6-9.9-29.7-8.6-40.1,4.4c-9.1,11.3-9.5,28.9,5.6,40.4
								C2436.9,1174.5,2453.4,1173.2,2463.7,1161.8z"/>
						</g>
						<g>
							<path class="st4" d="M2458.3,1643.3c-8.2,7-14.9,11.5-22.6,14.6c-8.3,3.4-17,5.3-25.8,5.5c-18.1,0.4-34.2-5.2-48.1-17
								c-10.4-8.8-17.5-19.8-21.5-32.7c-6.2-20.3-4.2-39.6,6.9-57.8c4.8-7.8,9.9-15.5,14.4-23.5c6.5-11.5,11.4-23.8,14.4-36.6
								c2.6-11.1,4.7-22.3,5.8-33.6c1.1-11.4,0.5-23-1-34.5c-1.5-11.9-4.7-23.2-8.4-34.6c-3.7-11.5-5.2-23.3-3.3-35.4
								c2.3-15,8.9-27.8,19.3-38.6c7-7.3,15.6-12.6,25.1-16.4c9.4-3.7,19.1-5.5,29-5c12.2,0.7,23.7,4,34.2,10.6
								c9.1,5.7,16.7,12.9,22.5,21.9c7.4,11.7,11.6,24.3,11.5,38.4c-0.1,12.3-3,23.7-9,34.4c-1.9,3.3-3.9,6.6-6.1,9.6
								c-10.3,14.4-17.6,30.3-22.4,47.1c-3.1,10.9-5,22.2-6.6,33.4c-2.3,16.6-1.7,33.2,1.8,49.6c2,9.5,4.8,18.8,7.4,28.1
								c3.1,11,4.4,22,2.4,33.4c-1.6,9.2-4.6,17.9-9.6,25.7C2465.3,1635.5,2460.8,1640.2,2458.3,1643.3z M2428.3,1614.7
								c12-10.5,13.9-28.9,1.3-41.6c-10-10.1-26.5-12.1-39-1.3c-12.5,10.7-13.5,27.9-2.8,40.3
								C2397.9,1623.7,2415.8,1625.7,2428.3,1614.7z M2457.3,1389.6c12.3-11.9,12.2-29.7,0.8-40.8c-11.5-11.2-28.7-11.6-40.4,0.2
								c-10.2,10.3-12.5,27.8,1.3,40.8C2429.2,1399.4,2445.8,1399.8,2457.3,1389.6z"/>
						</g>
					</g>
				</g>
			</g>
			<g>
				<g>
					<g>
						<g>
							<path class="st4" d="M2346.3,1868.9c-10.1,4.4-18,6.7-26.6,7.5c-9.2,0.8-18.2,0-26.9-2.5c-17.8-5.1-31.9-15.5-42-31.2
								c-7.5-11.8-11.2-24.7-11.2-38.5c0-21.7,7.8-40.1,24.2-54.5c7-6.2,14.4-12.2,21.2-18.6c9.8-9.3,18.3-19.9,25.1-31.6
								c5.8-10.1,11.3-20.4,15.8-31.2c4.5-10.9,7.4-22.4,9.4-34.1c2.1-12.1,2.4-24.2,2.2-36.4c-0.2-12.4,1.9-24.4,7.5-35.7
								c6.8-14,17.1-24.6,30.5-32c9.1-5,19-7.6,29.5-8.4c10.3-0.8,20.3,0.4,29.9,3.9c11.7,4.3,22,11.1,30.3,20.7
								c7.2,8.3,12.5,17.7,15.4,28.3c3.7,13.7,4.1,27.4-0.3,41.1c-3.8,12-10.1,22.3-19.1,31c-2.8,2.7-5.8,5.3-8.8,7.6
								c-14.5,10.9-26.3,24.4-36.1,39.4c-6.3,9.7-11.6,20.2-16.5,30.8c-7.2,15.5-11.7,32-13.2,49.1c-0.9,9.9-1,19.9-1.2,29.8
								c-0.3,11.7-2.3,22.9-7.7,33.5c-4.4,8.5-9.9,16.2-17.2,22.3C2355.4,1863.3,2349.6,1866.6,2346.3,1868.9z M2325.5,1831.7
								c14.9-6.7,22.3-24.1,13.8-40.4c-6.8-12.9-22.3-19.8-37.8-13.1c-15.4,6.7-21.7,23.3-14.9,38.6
								C2292.9,1831.4,2309.9,1838.8,2325.5,1831.7z M2421.7,1619.9c15.6-7.9,20.9-25.4,13-39.8s-24.6-20.1-39.6-12
								c-13.1,7-20.6,23.5-11.1,40.3C2391.2,1621,2407.3,1626.5,2421.7,1619.9z"/>
						</g>
						<g>
							<path class="st4" d="M2222.6,2071.6c-10.5,3.3-18.7,4.8-27.2,4.7c-9.2-0.1-18.1-1.9-26.5-5.3c-17.2-6.9-30.1-18.7-38.5-35.4
								c-6.2-12.5-8.5-25.7-7.1-39.5c2.3-21.6,12-39,29.8-51.7c7.7-5.5,15.6-10.6,23-16.3c10.8-8.2,20.3-17.8,28.3-28.7
								c6.9-9.4,13.4-19.1,19-29.3c5.7-10.3,9.7-21.5,12.9-32.9c3.4-11.8,4.9-23.8,6-36c1.1-12.3,4.5-24,11.2-34.7
								c8.2-13.2,19.6-22.7,33.7-28.6c9.6-4,19.8-5.6,30.3-5.3c10.3,0.3,20.2,2.5,29.4,7c11.2,5.5,20.7,13.3,28,23.7
								c6.3,9,10.6,18.9,12.3,29.7c2.3,14,1.2,27.6-4.6,40.8c-5.1,11.5-12.4,21.2-22.3,28.8c-3.1,2.4-6.3,4.6-9.6,6.6
								c-15.5,9.4-28.7,21.5-40.1,35.4c-7.3,9-13.7,18.9-19.6,28.8c-8.8,14.7-15,30.6-18.3,47.5c-1.9,9.7-3.1,19.6-4.4,29.5
								c-1.5,11.6-4.7,22.5-11.2,32.4c-5.3,8-11.5,15.1-19.4,20.4C2232.3,2067,2226.2,2069.7,2222.6,2071.6z M2205.8,2032.5
								c15.5-5,24.7-21.7,18-38.7c-5.4-13.5-20.1-22.1-36.3-16.9c-16.1,5.1-24,20.9-18.9,36.9
								C2173.5,2028.8,2189.6,2037.9,2205.8,2032.5z M2323.8,1832c16.3-6.2,23.5-23.1,17.2-38.2c-6.3-15.2-22.4-22.5-38.1-16.1
								c-13.8,5.6-23,21.2-15.2,38.9C2293.4,1830,2308.9,1837.1,2323.8,1832z"/>
						</g>
					</g>
				</g>
			</g>
		</g>
		<g>
			<g>
				<g>
					<g>
						<g>
							<path class="st4" d="M2039,2232.7c-10.8,0.3-18.8-0.5-26.8-2.8c-8.6-2.6-16.5-6.6-23.5-12c-14.3-11.1-23.3-25.6-26.7-43.5
								c-2.5-13.4-1.2-26.4,3.9-38.9c7.9-19.7,21.6-33.4,41.7-40.6c8.6-3.1,17.4-5.8,25.9-9.2c12.3-4.9,23.8-11.3,34.2-19.5
								c8.9-7,17.6-14.4,25.6-22.5c8.1-8.2,14.8-17.6,20.9-27.4c6.3-10.2,10.9-21.1,15.2-32.2c4.4-11.3,10.6-21.4,19.7-29.7
								c11.2-10.2,24.4-16.1,39.2-17.9c10-1.2,20,0,29.8,3.1c9.6,3,18.3,7.7,25.7,14.4c9.1,8.2,15.9,18,19.9,29.7
								c3.5,10.2,4.9,20.6,3.7,31.2c-1.6,13.8-6.3,26.3-15.2,37.1c-7.8,9.5-17.2,16.6-28.6,21.1c-3.5,1.4-7.1,2.7-10.8,3.7
								c-17.1,4.7-32.7,12.5-47,22.5c-9.3,6.5-17.8,14.1-26.1,21.9c-12.2,11.4-22.2,24.8-29.8,39.7c-4.4,8.6-8.1,17.6-12,26.5
								c-4.5,10.5-10.4,19.9-19.1,27.5c-7.1,6.1-14.8,11.1-23.6,14C2049.3,2230.9,2042.9,2231.8,2039,2232.7z M2033.7,2191.5
								c15.9-0.6,29-13.8,27.2-31.6c-1.4-14.1-13-26.1-29.5-25.6c-16.4,0.5-28.1,13.2-27.5,29.6
								C2004.4,2179.4,2017.1,2192.2,2033.7,2191.5z M2197.7,2034.6c17-1.5,28.1-15.4,26.3-31.3c-1.9-15.9-15-27.1-31.5-25.3
								c-14.4,1.6-27.2,13.8-24.7,32.5C2169.8,2024.6,2182.4,2035.4,2197.7,2034.6z"/>
						</g>
						<g>
							<path class="st4" d="M1853.4,2371.3c-10.7-0.9-18.6-2.4-26.4-5.6c-8.3-3.5-15.7-8.3-22.1-14.4c-13.1-12.5-20.5-27.9-22-46
								c-1.1-13.6,1.6-26.3,7.9-38.3c9.9-18.7,25-30.9,45.7-36c8.9-2.2,17.9-3.9,26.8-6.4c12.7-3.6,24.9-8.8,36.1-15.7
								c9.6-6,19.1-12.5,27.8-19.7c8.9-7.3,16.6-15.9,23.7-25.1c7.3-9.5,13.1-19.8,18.5-30.4c5.5-10.7,12.8-20.1,22.7-27.4
								c12.3-9,25.9-13.4,40.9-13.7c10.1-0.2,19.9,2.1,29.3,6.2c9.2,4,17.4,9.6,24,17c8.2,9.1,13.9,19.6,16.7,31.6
								c2.4,10.5,2.7,21,0.4,31.4c-3,13.5-9,25.4-19,35.3c-8.8,8.6-18.9,14.7-30.7,18c-3.6,1-7.4,1.9-11.1,2.5
								c-17.5,2.8-33.8,9-49.1,17.5c-9.9,5.5-19.2,12.1-28.3,19c-13.3,10.1-24.7,22.3-33.8,36.3c-5.3,8.1-9.9,16.7-14.7,25.1
								c-5.6,10-12.4,18.7-21.9,25.3c-7.7,5.4-15.9,9.5-25,11.4C1863.9,2370.7,1857.3,2370.9,1853.4,2371.3z M1852.4,2329.8
								c15.9,1.1,30.3-10.6,30.4-28.5c0.1-14.2-10.2-27.3-26.7-28.5c-16.4-1.2-29.3,10.2-30.5,26.5
								C1824.5,2314.7,1835.8,2328.8,1852.4,2329.8z M2032.1,2191.2c17.1,0.3,29.6-12.4,29.4-28.3c-0.2-16-12.1-28.5-28.7-28.4
								c-14.5,0.1-28.5,10.8-27.9,29.7C2005.3,2178.3,2016.7,2190.3,2032.1,2191.2z"/>
						</g>
					</g>
				</g>
			</g>
			<g>
				<g>
					<g>
						<g>
							<path class="st4" d="M1614.7,2451.6c-10.3-4.1-17.5-8-24.1-13.5c-7.1-5.9-12.9-12.8-17.3-20.8c-9-16.2-11.6-33.5-7.6-51.7
								c3-13.6,9.5-25.3,19.3-35.1c15.4-15.4,33.9-22.8,55.7-21.5c9.4,0.6,18.8,1.6,28.1,1.8c13.5,0.3,27-1.1,40.1-4.6
								c11.2-3,22.4-6.5,33.2-10.9c10.9-4.5,21-10.6,30.7-17.5c10-7.1,18.8-15.4,27.3-24.2c8.6-8.9,18.6-15.9,30.5-20
								c14.7-5.1,29.5-5.3,44.2-1.1c9.9,2.9,18.9,8.1,26.8,14.9c7.8,6.7,14.1,14.6,18.4,23.9c5.2,11.4,7.7,23.4,6.8,36
								c-0.8,11-3.7,21.4-9.1,30.9c-7,12.3-16.5,22.2-29.2,28.8c-11.2,5.8-22.9,8.7-35.5,8.4c-3.9-0.1-7.8-0.3-11.6-0.9
								c-18-2.5-35.8-1.4-53.4,2.3c-11.3,2.4-22.5,6.1-33.4,10.1c-16.1,5.9-30.9,14.4-44,25.4c-7.6,6.4-14.8,13.3-22,20.2
								c-8.5,8.1-17.8,14.6-29.1,18.2c-9.1,2.9-18.4,4.5-27.9,3.7C1625.1,2454.1,1618.6,2452.3,1614.7,2451.6z M1626.2,2410.6
								c15.2,5.8,32.8-1.3,38.3-18.8c4.4-13.9-1.8-29.8-17.5-36c-15.7-6.1-31.8,1.1-37.9,16.8
								C1603.5,2387.4,1610.3,2404.6,1626.2,2410.6z M1844,2328.8c16.6,5.4,32.7-3.2,37.4-18.9c4.6-15.8-3.2-31.6-19.5-36.5
								c-14.2-4.3-31.2,2-36.3,20.7C1821.7,2308.1,1829.3,2323.3,1844,2328.8z"/>
						</g>
						<g>
							<path class="st4" d="M1383.9,2507.5c-9.8-5.1-16.6-9.8-22.6-15.9c-6.4-6.6-11.5-14.1-15-22.5c-7.3-17.1-8.1-34.5-2.2-52.2
								c4.4-13.2,12.1-24.2,22.9-32.9c16.9-13.7,36.1-19.1,57.6-15.5c9.3,1.6,18.5,3.5,27.8,4.8c13.4,1.8,27,1.8,40.3-0.3
								c11.5-1.8,23-4.1,34.1-7.3c11.3-3.3,22-8.3,32.4-14.1c10.7-6,20.3-13.4,29.7-21.2c9.5-7.9,20.2-13.8,32.5-16.7
								c15.2-3.5,29.9-2.2,44.1,3.6c9.6,3.9,17.9,10,25.1,17.7c7.1,7.5,12.5,16,15.8,25.7c4,11.9,5.2,24.1,3,36.5
								c-1.9,10.9-5.9,20.9-12.3,29.7c-8.3,11.5-18.7,20.4-32.1,25.6c-11.7,4.6-23.7,6.2-36.1,4.6c-3.9-0.5-7.7-1.2-11.5-2.1
								c-17.6-4.4-35.5-5.2-53.4-3.3c-11.5,1.2-23,3.7-34.3,6.5c-16.6,4.1-32.2,11-46.5,20.6c-8.2,5.5-16.1,11.7-23.9,17.8
								c-9.3,7.1-19.2,12.6-30.8,15c-9.4,2-18.8,2.5-28.1,0.7C1394,2511,1387.8,2508.6,1383.9,2507.5z M1399.7,2468
								c14.6,7.4,32.8,2.2,40.1-14.7c5.8-13.4,1.4-29.8-13.7-37.6c-15-7.8-31.7-2.2-39.4,12.7
								C1379.4,2442.5,1384.4,2460.3,1399.7,2468z M1624.8,2409.6c16,7.2,32.9,0.3,39.1-14.9c6.3-15.2,0.1-31.7-15.6-38.3
								c-13.7-5.8-31.2-1.3-38.3,16.8C1604.8,2386.7,1610.7,2402.6,1624.8,2409.6z"/>
						</g>
					</g>
				</g>
			</g>
		</g>
	</g>
</g>
</svg>
